<?xml version="1.0" encoding="UTF-8"?>
<svg width="57px" height="42px" viewBox="0 0 57 42" version="1.1" xmlns="http://www.w3.org/2000/svg" xmlns:xlink="http://www.w3.org/1999/xlink">
    <!-- Generator: Sketch 52.2 (67145) - http://www.bohemiancoding.com/sketch -->
    <title>Artboard</title>
    <desc>Created with Sketch.</desc>
    <defs>
        <linearGradient x1="-428.338483%" y1="-50.5021988%" x2="865.454621%" y2="221.265611%" id="linearGradient-1">
            <stop stop-color="#FA4B7F" offset="0%"></stop>
            <stop stop-color="#F3935D" offset="100%"></stop>
        </linearGradient>
        <linearGradient x1="-653.061379%" y1="-97.6938434%" x2="640.731724%" y2="174.073967%" id="linearGradient-2">
            <stop stop-color="#FA4B7F" offset="0%"></stop>
            <stop stop-color="#F3935D" offset="100%"></stop>
        </linearGradient>
        <linearGradient x1="1.37289517%" y1="4.12836041%" x2="98.1537454%" y2="95.4134417%" id="linearGradient-3">
            <stop stop-color="#FA4B7F" offset="0%"></stop>
            <stop stop-color="#F3935D" offset="100%"></stop>
        </linearGradient>
        <linearGradient x1="-168.629495%" y1="-68.3079812%" x2="1044.82458%" y2="657.044131%" id="linearGradient-4">
            <stop stop-color="#FA4B7F" offset="0%"></stop>
            <stop stop-color="#F3935D" offset="100%"></stop>
        </linearGradient>
        <linearGradient x1="-944.056736%" y1="-172.336324%" x2="270.969171%" y2="99.4315743%" id="linearGradient-5">
            <stop stop-color="#FA4B7F" offset="0%"></stop>
            <stop stop-color="#F3935D" offset="100%"></stop>
        </linearGradient>
    </defs>
    <g id="Artboard" stroke="none" stroke-width="1" fill="none" fill-rule="evenodd">
        <g id="ebpto-logo-gradient" transform="translate(0.000000, 7.000000)">
            <g id="Group" transform="translate(1.000000, 0.000000)" fill="#000000">
                <polygon id="Path" points="0.0117154812 0.0465517241 1.69874477 0.0465517241 1.69874477 0.40862069 0.509623431 0.40862069 0.509623431 1.06034483 1.51715481 1.06034483 1.51715481 1.42241379 0.509623431 1.42241379 0.509623431 2.10517241 1.71046025 2.10517241 1.71046025 2.46724138 0.0117154812 2.46724138"></polygon>
                <polygon id="Path" points="2.75313808 0.413793103 2.00920502 0.413793103 2.00920502 0.0517241379 4.00669456 0.0517241379 4.00669456 0.413793103 3.26276151 0.413793103 3.26276151 2.47241379 2.75313808 2.47241379"></polygon>
                <polygon id="Path" points="4.38158996 0.0465517241 4.88535565 0.0465517241 4.88535565 1.06034483 5.8167364 1.06034483 5.8167364 0.0465517241 6.32050209 0.0465517241 6.32050209 2.46724138 5.8167364 2.46724138 5.8167364 1.42241379 4.88535565 1.42241379 4.88535565 2.46724138 4.38158996 2.46724138"></polygon>
                <polygon id="Path" points="6.89456067 0.0465517241 8.58158996 0.0465517241 8.58158996 0.40862069 7.39246862 0.40862069 7.39246862 1.06034483 8.4 1.06034483 8.4 1.42241379 7.39246862 1.42241379 7.39246862 2.10517241 8.59330544 2.10517241 8.59330544 2.46724138 6.89456067 2.46724138"></polygon>
                <path d="M9.53054393,2.46724138 L9.02677824,2.46724138 L9.02677824,0.0465517241 L10.0343096,0.0465517241 C10.3857741,0.0465517241 10.5790795,0.0982758621 10.725523,0.222413793 C10.860251,0.346551724 10.9188285,0.501724138 10.9188285,0.75 C10.9188285,1.15862069 10.7665272,1.36034483 10.4033473,1.44310345 L11.0008368,2.47241379 L10.4443515,2.47241379 L9.91715481,1.48448276 L9.53054393,1.48448276 L9.53054393,2.46724138 Z M10.0050209,1.13275862 C10.3037657,1.13275862 10.4267782,1.02413793 10.4267782,0.770689655 C10.4267782,0.512068966 10.2979079,0.403448276 9.9874477,0.403448276 L9.52468619,0.403448276 L9.52468619,1.13275862 L10.0050209,1.13275862 Z" id="Shape" fill-rule="nonzero"></path>
                <polygon id="Path" points="11.4225941 0.0465517241 13.1096234 0.0465517241 13.1096234 0.40862069 11.9205021 0.40862069 11.9205021 1.06034483 12.9280335 1.06034483 12.9280335 1.42241379 11.9205021 1.42241379 11.9205021 2.10517241 13.1213389 2.10517241 13.1213389 2.46724138 11.4225941 2.46724138"></polygon>
                <path d="M14.0468619,0.0465517241 L14.0468619,1.56724138 C14.0468619,1.77931034 14.0644351,1.88275862 14.1171548,1.96551724 C14.1991632,2.09482759 14.3104603,2.14137931 14.5330544,2.14137931 C14.7615063,2.14137931 14.8845188,2.08448276 14.9606695,1.93448276 C15.0016736,1.85689655 15.0133891,1.75344828 15.0133891,1.56724138 L15.0133891,0.0465517241 L15.5171548,0.0465517241 L15.5171548,1.56724138 C15.5171548,1.92413793 15.4761506,2.08448276 15.3472803,2.22413793 C15.1715481,2.41551724 14.925523,2.50344828 14.5271967,2.50344828 C14.0995816,2.50344828 13.8359833,2.40517241 13.6719665,2.18275862 C13.5723849,2.04827586 13.5372385,1.89827586 13.5372385,1.56724138 L13.5372385,0.0465517241 L14.0468619,0.0465517241 Z" id="Path"></path>
                <polygon id="Path" points="16.0794979 0.0465517241 16.5539749 0.0465517241 17.3096234 1.43793103 18.065272 0.0465517241 18.539749 0.0465517241 18.539749 2.46724138 18.0535565 2.46724138 18.0535565 0.879310345 17.4677824 1.94482759 17.1456067 1.94482759 16.5598326 0.879310345 16.5598326 2.46724138 16.0736402 2.46724138 16.0736402 0.0465517241"></polygon>
                <path d="M19.7874477,0.0465517241 L20.841841,0.0465517241 C21.158159,0.0465517241 21.3280335,0.0879310345 21.4627615,0.196551724 C21.6033473,0.305172414 21.6794979,0.486206897 21.6794979,0.693103448 C21.6794979,0.931034483 21.5974895,1.0862069 21.4158996,1.2 C21.4276151,1.20517241 21.4393305,1.21551724 21.4569038,1.22586207 C21.5623431,1.29827586 21.5974895,1.32931034 21.632636,1.39655172 C21.6970711,1.50517241 21.7263598,1.63965517 21.7263598,1.79482759 C21.7263598,2.03793103 21.6443515,2.22413793 21.474477,2.33793103 C21.3338912,2.43103448 21.18159,2.46724138 20.8887029,2.46724138 L19.78159,2.46724138 L19.78159,0.0465517241 L19.7874477,0.0465517241 Z M20.8125523,1.05517241 C21.0761506,1.05517241 21.1874477,0.956896552 21.1874477,0.729310345 C21.1874477,0.501724138 21.0702929,0.403448276 20.8125523,0.403448276 L20.2912134,0.403448276 L20.2912134,1.05517241 L20.8125523,1.05517241 Z M20.865272,2.11034483 C21.1288703,2.11034483 21.2401674,2.00689655 21.2401674,1.7637931 C21.2401674,1.52068966 21.1230126,1.41206897 20.865272,1.41206897 L20.2912134,1.41206897 L20.2912134,2.11551724 L20.865272,2.11551724 L20.865272,2.11034483 Z" id="Shape" fill-rule="nonzero"></path>
                <polygon id="Path" points="22.1364017 0.0465517241 22.6401674 0.0465517241 22.6401674 2.10517241 23.8351464 2.10517241 23.8351464 2.46724138 22.1364017 2.46724138"></polygon>
                <path d="M24.116318,0.972413793 C24.116318,0.615517241 24.1748954,0.418965517 24.3447699,0.25862069 C24.5263598,0.0879310345 24.7606695,0.0103448276 25.1297071,0.0103448276 C25.5280335,0.0103448276 25.7740586,0.0982758621 25.9556485,0.3 C26.0962343,0.455172414 26.1430962,0.64137931 26.1430962,0.972413793 L26.1430962,1.54655172 C26.1430962,1.90344828 26.0845188,2.1 25.9146444,2.26034483 C25.7330544,2.43103448 25.4987448,2.50862069 25.1297071,2.50862069 C24.7372385,2.50862069 24.4853556,2.42068966 24.3037657,2.21896552 C24.1690377,2.06896552 24.116318,1.87758621 24.116318,1.54655172 L24.116318,0.972413793 Z M25.6393305,1.00862069 C25.6393305,0.548275862 25.4987448,0.372413793 25.1297071,0.372413793 C24.7606695,0.372413793 24.6200837,0.548275862 24.6200837,1.00862069 L24.6200837,1.51034483 C24.6200837,1.97068966 24.7606695,2.14655172 25.1297071,2.14655172 C25.4987448,2.14655172 25.6393305,1.97068966 25.6393305,1.51034483 L25.6393305,1.00862069 Z" id="Shape" fill-rule="nonzero"></path>
                <path d="M28.5271967,1.8362069 C28.4979079,2.28103448 28.18159,2.50344828 27.5665272,2.50344828 C27.1857741,2.50344828 26.939749,2.41034483 26.7698745,2.20344828 C26.6410042,2.04827586 26.5941423,1.85689655 26.5941423,1.51551724 L26.5941423,0.998275862 C26.5941423,0.620689655 26.6527197,0.424137931 26.8108787,0.263793103 C26.9807531,0.0879310345 27.2150628,0.0103448276 27.5665272,0.0103448276 C28.158159,0.0103448276 28.4627615,0.232758621 28.4861925,0.693103448 L28.023431,0.724137931 C27.9882845,0.481034483 27.841841,0.367241379 27.5723849,0.367241379 C27.2209205,0.367241379 27.0979079,0.537931034 27.0979079,1.02413793 L27.0979079,1.47931034 C27.0979079,1.96551724 27.2209205,2.1362069 27.5841004,2.1362069 C27.865272,2.1362069 28.023431,2.02241379 28.0585774,1.77931034 L28.5271967,1.8362069 Z" id="Path"></path>
                <polygon id="Path" points="28.9665272 0.0465517241 29.4644351 0.0465517241 29.4644351 1.13793103 30.3899582 0.0465517241 30.98159 0.0465517241 30.0794979 1.03448276 31.0343096 2.46724138 30.4543933 2.46724138 29.7514644 1.33965517 29.4644351 1.66551724 29.4644351 2.46724138 28.9665272 2.46724138"></polygon>
                <path d="M33.0962343,1.8362069 C33.0669456,2.28103448 32.7506276,2.50344828 32.1355649,2.50344828 C31.7548117,2.50344828 31.5087866,2.41034483 31.3389121,2.20344828 C31.2100418,2.04827586 31.1631799,1.85689655 31.1631799,1.51551724 L31.1631799,0.998275862 C31.1631799,0.620689655 31.2217573,0.424137931 31.3799163,0.263793103 C31.5497908,0.0879310345 31.7841004,0.0103448276 32.1355649,0.0103448276 C32.7271967,0.0103448276 33.0317992,0.232758621 33.0552301,0.693103448 L32.5924686,0.724137931 C32.5573222,0.481034483 32.4108787,0.367241379 32.1414226,0.367241379 C31.7899582,0.367241379 31.6669456,0.537931034 31.6669456,1.02413793 L31.6669456,1.47931034 C31.6669456,1.96551724 31.7899582,2.1362069 32.1531381,2.1362069 C32.4343096,2.1362069 32.5924686,2.02241379 32.6276151,1.77931034 L33.0962343,1.8362069 Z" id="Path"></path>
                <polygon id="Path" points="33.5297071 0.0465517241 34.0334728 0.0465517241 34.0334728 1.06034483 34.9648536 1.06034483 34.9648536 0.0465517241 35.4686192 0.0465517241 35.4686192 2.46724138 34.9648536 2.46724138 34.9648536 1.42241379 34.0334728 1.42241379 34.0334728 2.46724138 33.5297071 2.46724138"></polygon>
                <path d="M36.4995816,1.99137931 L36.3238494,2.46724138 L35.7790795,2.46724138 L36.7748954,0.0465517241 L37.2610879,0.0465517241 L38.2569038,2.46724138 L37.7121339,2.46724138 L37.5422594,1.99137931 L36.4995816,1.99137931 Z M37.0209205,0.579310345 L36.6225941,1.63448276 L37.4192469,1.63448276 L37.0209205,0.579310345 Z" id="Shape" fill-rule="nonzero"></path>
                <polygon id="Path" points="38.4384937 0.0465517241 38.9422594 0.0465517241 38.9422594 2.46724138 38.4384937 2.46724138"></polygon>
                <polygon id="Path" points="39.516318 0.0465517241 40.0025105 0.0465517241 41.0979079 1.72241379 41.0979079 0.0465517241 41.5841004 0.0465517241 41.5841004 2.46724138 41.0979079 2.46724138 40.0083682 0.796551724 40.0083682 2.47241379 39.5221757 2.47241379 39.5221757 0.0465517241"></polygon>
                <path d="M0.509623431,5.93793103 L0.00585774059,5.93793103 L0.00585774059,3.51724138 L0.925523013,3.51724138 C1.30627615,3.51724138 1.51129707,3.56896552 1.66359833,3.70862069 C1.8041841,3.84310345 1.86861925,4.01896552 1.86861925,4.28275862 C1.86861925,4.57241379 1.79832636,4.75862069 1.62845188,4.89310345 C1.47615063,5.01206897 1.27698745,5.05862069 0.931380753,5.05862069 L0.515481172,5.05862069 L0.515481172,5.93793103 L0.509623431,5.93793103 Z M0.931380753,4.70172414 C1.24769874,4.70172414 1.3707113,4.57758621 1.3707113,4.28275862 C1.3707113,3.98793103 1.241841,3.86896552 0.931380753,3.86896552 L0.50376569,3.86896552 L0.50376569,4.70172414 L0.931380753,4.70172414 Z" id="Shape" fill-rule="nonzero"></path>
                <path d="M2.51297071,5.45689655 L2.33723849,5.93275862 L1.79246862,5.93275862 L2.78828452,3.51206897 L3.27447699,3.51206897 L4.27029289,5.93275862 L3.72552301,5.93275862 L3.55564854,5.45689655 L2.51297071,5.45689655 Z M3.03430962,4.04482759 L2.63598326,5.1 L3.43263598,5.1 L3.03430962,4.04482759 Z" id="Shape" fill-rule="nonzero"></path>
                <polygon id="Path" points="4.8209205 3.87931034 4.07112971 3.87931034 4.07112971 3.51724138 6.06861925 3.51724138 6.06861925 3.87931034 5.32468619 3.87931034 5.32468619 5.93793103 4.8209205 5.93793103 4.8209205 3.87931034"></polygon>
                <polygon id="Path" points="6.44351464 3.51724138 8.13054393 3.51724138 8.13054393 3.87931034 6.94142259 3.87931034 6.94142259 4.53103448 7.94895397 4.53103448 7.94895397 4.89310345 6.94142259 4.89310345 6.94142259 5.57586207 8.14225941 5.57586207 8.14225941 5.93793103 6.44351464 5.93793103"></polygon>
                <polygon id="Path" points="8.57573222 3.51724138 9.06192469 3.51724138 10.1573222 5.19310345 10.1573222 3.51724138 10.6435146 3.51724138 10.6435146 5.93793103 10.1573222 5.93793103 9.06192469 4.26206897 9.06192469 5.93793103 8.57573222 5.93793103"></polygon>
                <polygon id="Path" points="11.7682008 3.87931034 11.01841 3.87931034 11.01841 3.51724138 13.0158996 3.51724138 13.0158996 3.87931034 12.2719665 3.87931034 12.2719665 5.93793103 11.7682008 5.93793103"></polygon>
                <path d="M14.3221757,5.45689655 L14.1464435,5.93275862 L13.6016736,5.93275862 L14.5974895,3.51206897 L15.083682,3.51206897 L16.0794979,5.93275862 L15.534728,5.93275862 L15.3648536,5.45689655 L14.3221757,5.45689655 Z M14.8435146,4.04482759 L14.4451883,5.1 L15.241841,5.1 L14.8435146,4.04482759 Z" id="Shape" fill-rule="nonzero"></path>
                <polygon id="Path" points="16.2610879 3.51724138 16.7472803 3.51724138 17.8426778 5.19310345 17.8426778 3.51724138 18.3288703 3.51724138 18.3288703 5.93793103 17.8426778 5.93793103 16.7472803 4.26206897 16.7472803 5.93793103 16.2610879 5.93793103"></polygon>
                <path d="M18.9087866,3.51724138 L19.8401674,3.51724138 C20.5606695,3.50689655 20.9004184,3.81724138 20.8828452,4.45344828 L20.8828452,4.99655172 C20.9004184,5.63793103 20.5665272,5.94310345 19.8401674,5.93793103 L18.9087866,5.93793103 L18.9087866,3.51724138 Z M19.7464435,5.58103448 C20.209205,5.5862069 20.3615063,5.4362069 20.3732218,4.96551724 L20.3732218,4.48965517 C20.367364,4.01896552 20.209205,3.8637931 19.7464435,3.87413793 L19.4066946,3.87413793 L19.4066946,5.58103448 L19.7464435,5.58103448 Z" id="Shape" fill-rule="nonzero"></path>
                <polygon id="Path" points="22.5405858 3.87931034 21.790795 3.87931034 21.790795 3.51724138 23.7882845 3.51724138 23.7882845 3.87931034 23.0443515 3.87931034 23.0443515 5.93793103 22.5405858 5.93793103"></polygon>
                <path d="M24.6669456,5.93793103 L24.1631799,5.93793103 L24.1631799,3.51724138 L25.1707113,3.51724138 C25.5221757,3.51724138 25.7154812,3.56896552 25.8619247,3.69310345 C25.9966527,3.81724138 26.0552301,3.97241379 26.0552301,4.22068966 C26.0552301,4.62931034 25.9029289,4.83103448 25.539749,4.9137931 L26.1372385,5.94310345 L25.5807531,5.94310345 L25.0535565,4.95517241 L24.6669456,4.95517241 L24.6669456,5.93793103 Z M25.1414226,4.60344828 C25.4401674,4.60344828 25.5631799,4.49482759 25.5631799,4.24137931 C25.5631799,3.98275862 25.4343096,3.87413793 25.1238494,3.87413793 L24.6610879,3.87413793 L24.6610879,4.60344828 L25.1414226,4.60344828 Z" id="Shape" fill-rule="nonzero"></path>
                <path d="M27.0803347,5.45689655 L26.9046025,5.93275862 L26.3598326,5.93275862 L27.3556485,3.51206897 L27.841841,3.51206897 L28.8376569,5.93275862 L28.292887,5.93275862 L28.1230126,5.45689655 L27.0803347,5.45689655 Z M27.6016736,4.04482759 L27.2033473,5.1 L28,5.1 L27.6016736,4.04482759 Z" id="Shape" fill-rule="nonzero"></path>
                <path d="M29.0192469,3.51724138 L29.9506276,3.51724138 C30.6711297,3.50689655 31.0108787,3.81724138 30.9933054,4.45344828 L30.9933054,4.99655172 C31.0108787,5.63793103 30.6769874,5.94310345 29.9506276,5.93793103 L29.0192469,5.93793103 L29.0192469,3.51724138 Z M29.8569038,5.58103448 C30.3196653,5.5862069 30.4719665,5.4362069 30.483682,4.96551724 L30.483682,4.48965517 C30.4778243,4.01896552 30.3196653,3.8637931 29.8569038,3.87413793 L29.5230126,3.87413793 L29.5230126,5.58103448 L29.8569038,5.58103448 Z" id="Shape" fill-rule="nonzero"></path>
                <polygon id="Path" points="31.4970711 3.51724138 33.1841004 3.51724138 33.1841004 3.87931034 31.9949791 3.87931034 31.9949791 4.53103448 33.0025105 4.53103448 33.0025105 4.89310345 31.9949791 4.89310345 31.9949791 5.57586207 33.1958159 5.57586207 33.1958159 5.93793103 31.4970711 5.93793103"></polygon>
                <polygon id="Path" points="33.6292887 3.51724138 34.1037657 3.51724138 34.8594142 4.90862069 35.6150628 3.51724138 36.0895397 3.51724138 36.0895397 5.93793103 35.6033473 5.93793103 35.6033473 4.35 35.0175732 5.41551724 34.6953975 5.41551724 34.1096234 4.35 34.1096234 5.93793103 33.623431 5.93793103 33.623431 3.51724138"></polygon>
                <path d="M37.1205021,5.45689655 L36.9447699,5.93275862 L36.4,5.93275862 L37.3958159,3.51206897 L37.8820084,3.51206897 L38.8778243,5.93275862 L38.3330544,5.93275862 L38.1631799,5.45689655 L37.1205021,5.45689655 Z M37.6359833,4.04482759 L37.2376569,5.1 L38.0343096,5.1 L37.6359833,4.04482759 Z" id="Shape" fill-rule="nonzero"></path>
                <path d="M39.5631799,5.93793103 L39.0594142,5.93793103 L39.0594142,3.51724138 L40.0669456,3.51724138 C40.41841,3.51724138 40.6117155,3.56896552 40.758159,3.69310345 C40.892887,3.81724138 40.9514644,3.97241379 40.9514644,4.22068966 C40.9514644,4.62931034 40.7991632,4.83103448 40.4359833,4.9137931 L41.0334728,5.94310345 L40.4769874,5.94310345 L39.9497908,4.95517241 L39.5631799,4.95517241 L39.5631799,5.93793103 Z M40.0317992,4.60344828 C40.3305439,4.60344828 40.4535565,4.49482759 40.4535565,4.24137931 C40.4535565,3.98275862 40.3246862,3.87413793 40.0142259,3.87413793 L39.5514644,3.87413793 L39.5514644,4.60344828 L40.0317992,4.60344828 Z" id="Shape" fill-rule="nonzero"></path>
                <polygon id="Path" points="41.4552301 3.51724138 41.9531381 3.51724138 41.9531381 4.60862069 42.8786611 3.51724138 43.4702929 3.51724138 42.5682008 4.50517241 43.5230126 5.93793103 42.9430962 5.93793103 42.2401674 4.81034483 41.9531381 5.1362069 41.9531381 5.93793103 41.4552301 5.93793103"></polygon>
                <path d="M44.325523,4.43793103 C44.325523,4.08103448 44.3841004,3.88448276 44.5539749,3.72413793 C44.7355649,3.55344828 44.9698745,3.47586207 45.3389121,3.47586207 C45.7372385,3.47586207 45.9832636,3.5637931 46.1648536,3.76551724 C46.3054393,3.92068966 46.3523013,4.10689655 46.3523013,4.43793103 L46.3523013,5.01724138 C46.3523013,5.37413793 46.2937238,5.57068966 46.1238494,5.73103448 C45.9422594,5.90172414 45.7079498,5.97931034 45.3389121,5.97931034 C44.9464435,5.97931034 44.6945607,5.89137931 44.5129707,5.68965517 C44.3782427,5.53965517 44.325523,5.34827586 44.325523,5.01724138 L44.325523,4.43793103 Z M45.8485356,4.47413793 C45.8485356,4.0137931 45.7079498,3.83793103 45.3389121,3.83793103 C44.9698745,3.83793103 44.8292887,4.0137931 44.8292887,4.47413793 L44.8292887,4.97586207 C44.8292887,5.4362069 44.9698745,5.61206897 45.3389121,5.61206897 C45.7079498,5.61206897 45.8485356,5.4362069 45.8485356,4.97586207 L45.8485356,4.47413793 Z" id="Shape" fill-rule="nonzero"></path>
                <polygon id="Path" points="46.8736402 3.51724138 48.5372385 3.51724138 48.5372385 3.87931034 47.3715481 3.87931034 47.3715481 4.55172414 48.3497908 4.55172414 48.3497908 4.9137931 47.3715481 4.9137931 47.3715481 5.93793103 46.8677824 5.93793103 46.8677824 3.51724138"></polygon>
                <polygon id="Path" points="48.8711297 3.51724138 50.534728 3.51724138 50.534728 3.87931034 49.3690377 3.87931034 49.3690377 4.55172414 50.3472803 4.55172414 50.3472803 4.9137931 49.3690377 4.9137931 49.3690377 5.93793103 48.865272 5.93793103 48.865272 3.51724138"></polygon>
                <polygon id="Path" points="50.8686192 3.51724138 51.3723849 3.51724138 51.3723849 5.93793103 50.8686192 5.93793103"></polygon>
                <path d="M53.8150628,5.30689655 C53.7857741,5.75172414 53.4694561,5.97413793 52.8543933,5.97413793 C52.4736402,5.97413793 52.2276151,5.88103448 52.0577406,5.67413793 C51.9288703,5.51896552 51.8820084,5.32758621 51.8820084,4.9862069 L51.8820084,4.46896552 C51.8820084,4.09137931 51.9405858,3.89482759 52.0987448,3.73448276 C52.2686192,3.55862069 52.5029289,3.48103448 52.8543933,3.48103448 C53.4460251,3.48103448 53.7506276,3.70344828 53.7740586,4.1637931 L53.3112971,4.19482759 C53.2761506,3.95172414 53.1297071,3.83793103 52.860251,3.83793103 C52.5087866,3.83793103 52.3857741,4.00862069 52.3857741,4.49482759 L52.3857741,4.95 C52.3857741,5.4362069 52.5087866,5.60689655 52.8719665,5.60689655 C53.1531381,5.60689655 53.3112971,5.49310345 53.3464435,5.25 L53.8150628,5.30689655 Z" id="Path"></path>
                <polygon id="Path" points="54.2543933 3.51724138 55.9414226 3.51724138 55.9414226 3.87931034 54.7523013 3.87931034 54.7523013 4.53103448 55.7598326 4.53103448 55.7598326 4.89310345 54.7523013 4.89310345 54.7523013 5.57586207 55.9531381 5.57586207 55.9531381 5.93793103 54.2543933 5.93793103"></polygon>
            </g>
            <g id="Group" transform="translate(0.000000, 8.000000)">
                <path d="M20.2673196,13.7109145 C21.2839175,13.7109145 21.8950515,13.3569322 22.1007216,12.6548673 C22.3063918,11.9528024 22.4062887,11.179941 22.4062887,10.3421829 C22.4062887,10.3303835 22.4062887,10.3185841 22.4062887,10.3126844 C22.4062887,10.3067847 22.4062887,10.2949853 22.4062887,10.2831858 C22.4062887,9.45722714 22.3005155,8.7079646 22.0889691,8.02359882 C21.8774227,7.33923304 21.2662887,7.00294985 20.2673196,7.00294985 C19.3741237,7.00294985 18.8041237,7.2920354 18.5573196,7.87610619 C18.3105155,8.46017699 18.1694845,9.09734513 18.1459794,9.79351032 C18.1459794,9.89380531 18.1459794,9.98820059 18.1459794,10.0825959 C18.1459794,10.1769912 18.1459794,10.2654867 18.1459794,10.3480826 C18.1459794,10.4306785 18.1459794,10.519174 18.1459794,10.6017699 C18.1459794,10.6843658 18.1459794,10.7728614 18.1459794,10.8554572 C18.1753608,11.5634218 18.3105155,12.2182891 18.5514433,12.8141593 C18.7923711,13.4159292 19.3623711,13.7109145 20.2673196,13.7109145 Z" id="Path" fill="url(#linearGradient-1)"></path>
                <path d="M30.8798969,13.7109145 C31.8847423,13.7109145 32.49,13.3687316 32.7015464,12.6902655 C32.9130928,12.0058997 33.018866,11.2566372 33.018866,10.4306785 C33.018866,10.4188791 33.018866,10.4070796 33.018866,10.4011799 C33.018866,10.3952802 33.018866,10.3834808 33.018866,10.3716814 C33.018866,9.5339233 32.9130928,8.76106195 32.713299,8.05899705 C32.5076289,7.35693215 31.8964948,7.00294985 30.8798969,7.00294985 C29.9749485,7.00294985 29.4049485,7.30383481 29.1640206,7.89970501 C28.9230928,8.49557522 28.7879381,9.15044248 28.7585567,9.85840708 C28.7585567,9.94100295 28.7585567,10.0294985 28.7585567,10.1120944 C28.7585567,10.1946903 28.7585567,10.2831858 28.7585567,10.3657817 C28.7585567,10.4483776 28.7585567,10.5427729 28.7585567,10.6312684 C28.7585567,10.7256637 28.7585567,10.820059 28.7585567,10.920354 C28.7879381,11.6165192 28.9230928,12.2536873 29.1698969,12.8377581 C29.416701,13.4218289 29.986701,13.7109145 30.8798969,13.7109145 Z" id="Path" fill="url(#linearGradient-2)"></path>
                <path d="M54.8257732,0.0294985251 L39.8529897,0.0294985251 L39.8529897,4.96165192 L41.4219588,4.96165192 L41.4219588,6.62536873 L39.8529897,6.62536873 L39.8529897,12.9085546 C39.8529897,13.2094395 39.9117526,13.4159292 40.0351546,13.5339233 C40.1526804,13.6519174 40.3524742,13.7168142 40.6169072,13.7168142 L41.4219588,13.7168142 L41.4219588,15.7640118 L40.2995876,15.7640118 C39.5474227,15.7640118 38.9304124,15.5339233 38.4309278,15.0737463 C37.9373196,14.6135693 37.6905155,13.9528024 37.6905155,13.1032448 L37.6905155,6.61946903 L36.6092784,6.61946903 L36.6092784,4.95575221 L37.6905155,4.95575221 L37.6905155,0.0235988201 L18.1459794,0.0235988201 L18.1459794,6.10619469 C18.5573196,5.72271386 18.9862887,5.4159292 19.4270103,5.179941 C19.8736082,4.9439528 20.3730928,4.8259587 20.9254639,4.8259587 C21.5894845,4.8259587 22.1594845,4.95575221 22.6354639,5.22123894 C23.1114433,5.48672566 23.4992784,5.82300885 23.8107216,6.2300885 C23.8224742,6.24188791 23.8342268,6.25958702 23.8401031,6.27138643 C23.8459794,6.28318584 23.857732,6.29498525 23.8694845,6.29498525 C24.1397938,6.67846608 24.3219588,7.12684366 24.4218557,7.6460177 C24.5217526,8.16519174 24.5687629,9.0619469 24.5687629,10.3421829 C24.5687629,11.6342183 24.5217526,12.5427729 24.4218557,13.0678466 C24.3219588,13.5929204 24.1397938,14.0412979 23.8694845,14.4070796 C23.857732,14.4070796 23.8459794,14.4129794 23.8401031,14.4306785 C23.8342268,14.4424779 23.8224742,14.460177 23.8107216,14.4719764 C23.4992784,14.8672566 23.105567,15.1976401 22.6354639,15.4631268 C22.1594845,15.7286136 21.5894845,15.8584071 20.9254639,15.8584071 C20.3730928,15.8584071 19.8559794,15.7463127 19.3741237,15.5162242 C18.892268,15.2920354 18.4809278,14.9911504 18.1459794,14.619469 L18.1459794,15.7463127 L15.9835052,15.7463127 L15.9835052,0.0294985251 L2.1742268,0.0294985251 C0.987216495,0.0294985251 0.0235051546,0.997050147 0.0235051546,2.18879056 L0.0235051546,17.8348083 C0.0235051546,19.0265487 0.987216495,19.9941003 2.1742268,19.9941003 L26.5960825,19.9941003 L26.5960825,4.96165192 L28.7585567,4.96165192 L28.7585567,6.08849558 C29.0993814,5.71681416 29.5107216,5.4159292 29.986701,5.18584071 C30.4685567,4.94985251 30.9856701,4.83185841 31.5380412,4.83185841 C32.2020619,4.83185841 32.7720619,4.96165192 33.2480412,5.22713864 C33.7240206,5.49262537 34.1118557,5.82890855 34.423299,6.2359882 C34.4350515,6.24778761 34.4468041,6.26548673 34.4526804,6.27728614 C34.4585567,6.28908555 34.4703093,6.30088496 34.4820619,6.30088496 C34.7523711,6.67256637 34.9345361,7.11504425 35.034433,7.64011799 C35.1343299,8.16519174 35.1813402,9.07374631 35.1813402,10.3657817 C35.1813402,11.6460177 35.1343299,12.5427729 35.034433,13.0619469 C34.9345361,13.5811209 34.7523711,14.0294985 34.4820619,14.4129794 C34.4703093,14.4129794 34.4585567,14.4188791 34.4526804,14.4365782 C34.4468041,14.4483776 34.4350515,14.4660767 34.423299,14.4778761 C34.1118557,14.8731563 33.7181443,15.2035398 33.2480412,15.4690265 C32.7720619,15.7345133 32.2020619,15.8643068 31.5380412,15.8643068 C30.9856701,15.8643068 30.4861856,15.7522124 30.0395876,15.5221239 C29.5929897,15.2979351 29.1640206,14.9911504 28.7585567,14.6076696 L28.7585567,19.9882006 L54.8257732,19.9882006 C56.0127835,19.9882006 56.9764948,19.020649 56.9764948,17.8289086 L56.9764948,2.18879056 C56.9764948,0.997050147 56.0127835,0.0294985251 54.8257732,0.0294985251 Z M13.7563918,11.179941 L7.05154639,11.179941 C7.05154639,12.0589971 7.29835052,12.7256637 7.78608247,13.1740413 C8.27381443,13.6224189 8.88494845,13.8466077 9.61948454,13.8466077 C9.70175258,13.8466077 9.78989691,13.840708 9.87216495,13.8348083 C9.95443299,13.8289086 10.0425773,13.8171091 10.1248454,13.8053097 C10.4480412,13.7463127 10.7771134,13.6342183 11.1003093,13.4631268 C11.4235052,13.2920354 11.7173196,13.0737463 11.97,12.8023599 L13.5389691,14.1415929 C13.0159794,14.7551622 12.4165979,15.1917404 11.746701,15.4631268 C11.0768041,15.7345133 10.3775258,15.8702065 9.65474227,15.8702065 C9.51371134,15.8702065 9.37268041,15.8643068 9.24340206,15.8584071 C9.10824742,15.8525074 8.97309278,15.840708 8.83206186,15.8289086 C7.84484536,15.699115 6.93402062,15.2507375 6.11721649,14.4778761 C5.29453608,13.7050147 4.88907216,12.3421829 4.88907216,10.4011799 C4.88907216,8.52507375 5.28278351,7.1740413 6.0643299,6.34218289 C6.85175258,5.51032448 7.71556701,5.02654867 8.66164948,4.88495575 C8.77329897,4.87315634 8.88494845,4.86135693 8.99072165,4.85545723 C9.09649485,4.84955752 9.20814433,4.84365782 9.31979381,4.84365782 C10.5068041,4.84365782 11.5410309,5.25663717 12.4283505,6.07669617 C13.3097938,6.90265487 13.7563918,8.00589971 13.7563918,9.39823009 L13.7563918,11.179941 Z M51.8464948,12.9262537 C51.6702062,13.4926254 51.382268,14.0058997 50.9885567,14.460177 C50.9768041,14.4719764 50.9591753,14.4896755 50.9474227,14.5014749 C50.9180412,14.5309735 50.8945361,14.560472 50.8710309,14.5840708 C50.8475258,14.6135693 50.8240206,14.6430678 50.7946392,14.6666667 C50.4831959,14.9675516 50.077732,15.2389381 49.5723711,15.4867257 C49.0728866,15.7345133 48.4382474,15.8584071 47.6743299,15.8584071 C46.9104124,15.8584071 46.2757732,15.7345133 45.7762887,15.4867257 C45.2768041,15.2389381 44.8654639,14.9675516 44.5540206,14.6666667 C44.5246392,14.6371681 44.501134,14.6076696 44.4776289,14.5840708 C44.4541237,14.5545723 44.4306186,14.5250737 44.4012371,14.5014749 C44.3894845,14.4896755 44.3718557,14.4719764 44.3601031,14.460177 C43.9663918,14.0058997 43.6784536,13.4926254 43.5021649,12.9262537 C43.3258763,12.359882 43.237732,11.4985251 43.237732,10.3480826 C43.237732,9.19764012 43.3258763,8.34218289 43.5021649,7.78171091 C43.6784536,7.22123894 43.9663918,6.71386431 44.3601031,6.25958702 C44.3718557,6.24778761 44.3894845,6.2300885 44.4012371,6.21828909 C44.4306186,6.18879056 44.4541237,6.15929204 44.4776289,6.13569322 C44.501134,6.10619469 44.5246392,6.07669617 44.5540206,6.05309735 C44.8654639,5.75221239 45.2709278,5.48082596 45.7762887,5.22123894 C46.2757732,4.96755162 46.9104124,4.83775811 47.6743299,4.83775811 C48.4382474,4.83775811 49.0728866,4.96755162 49.5723711,5.22123894 C50.0718557,5.47492625 50.4831959,5.75221239 50.7946392,6.05309735 C50.8240206,6.08259587 50.8475258,6.1120944 50.8710309,6.13569322 C50.8945361,6.16519174 50.9180412,6.19469027 50.9474227,6.21828909 C50.9591753,6.2300885 50.9768041,6.24778761 50.9885567,6.25958702 C51.382268,6.71386431 51.6702062,7.22123894 51.8464948,7.78171091 C52.0227835,8.34218289 52.1109278,9.19764012 52.1109278,10.3480826 C52.1109278,11.4985251 52.0227835,12.359882 51.8464948,12.9262537 Z" id="Shape" fill="url(#linearGradient-3)" fill-rule="nonzero"></path>
                <path d="M9.3256701,6.87315634 C8.69103093,6.87315634 8.15628866,7.08554572 7.73319588,7.51032448 C7.31010309,7.93510324 7.08092784,8.56047198 7.05154639,9.38643068 L11.5939175,9.38643068 C11.5645361,8.56047198 11.3412371,7.94100295 10.912268,7.51032448 C10.4891753,7.09144543 9.96030928,6.87315634 9.3256701,6.87315634 Z" id="Path" fill="url(#linearGradient-4)"></path>
                <path d="M49.5429897,7.98230088 C49.5312371,7.95280236 49.5136082,7.92330383 49.4901031,7.8879056 C49.4665979,7.85250737 49.4430928,7.82300885 49.4137113,7.79351032 C49.2550515,7.56932153 49.02,7.38053097 48.7026804,7.22713864 C48.3853608,7.07964602 48.0386598,7.00294985 47.6743299,7.00294985 C47.3041237,7.00294985 46.963299,7.07964602 46.6459794,7.22713864 C46.3286598,7.37463127 46.0936082,7.56342183 45.9349485,7.79351032 C45.905567,7.82300885 45.8820619,7.85250737 45.8585567,7.8879056 C45.8350515,7.92330383 45.8174227,7.95280236 45.8056701,7.98230088 C45.6528866,8.2359882 45.5412371,8.52507375 45.4883505,8.84365782 C45.4295876,9.16224189 45.4060825,9.66371681 45.4060825,10.3480826 C45.4060825,11.0442478 45.4354639,11.5516224 45.4883505,11.8702065 C45.5471134,12.1887906 45.6528866,12.4778761 45.8056701,12.7315634 C45.8174227,12.7610619 45.8350515,12.7905605 45.8585567,12.8259587 C45.8820619,12.8613569 45.905567,12.8908555 45.9349485,12.920354 C46.087732,13.1504425 46.3286598,13.3333333 46.6459794,13.4867257 C46.963299,13.6342183 47.3041237,13.7109145 47.6743299,13.7109145 C48.0445361,13.7109145 48.3853608,13.6342183 48.7026804,13.4867257 C49.02,13.339233 49.2550515,13.1504425 49.4137113,12.920354 C49.4430928,12.8908555 49.4665979,12.8613569 49.4901031,12.8259587 C49.5136082,12.7905605 49.5312371,12.7610619 49.5429897,12.7315634 C49.6957732,12.4778761 49.8015464,12.1887906 49.8603093,11.8702065 C49.9190722,11.5516224 49.9425773,11.0501475 49.9425773,10.3657817 C49.9425773,9.66961652 49.9131959,9.16224189 49.8603093,8.84365782 C49.8074227,8.52507375 49.7016495,8.24188791 49.5429897,7.98230088 Z" id="Path" fill="url(#linearGradient-5)"></path>
            </g>
        </g>
    </g>
</svg>