<?xml version="1.0" encoding="UTF-8"?>
<svg width="108px" height="48px" viewBox="0 0 108 48" version="1.1" xmlns="http://www.w3.org/2000/svg" xmlns:xlink="http://www.w3.org/1999/xlink">
    <!-- Generator: Sketch 52.2 (67145) - http://www.bohemiancoding.com/sketch -->
    <title>Artboard</title>
    <desc>Created with Sketch.</desc>
    <defs>
        <linearGradient x1="-428.338483%" y1="-50.5021988%" x2="865.454621%" y2="221.265611%" id="linearGradient-1">
            <stop stop-color="#FA4B7F" offset="0%"></stop>
            <stop stop-color="#F3935D" offset="100%"></stop>
        </linearGradient>
        <linearGradient x1="-653.061379%" y1="-97.6938434%" x2="640.731724%" y2="174.073967%" id="linearGradient-2">
            <stop stop-color="#FA4B7F" offset="0%"></stop>
            <stop stop-color="#F3935D" offset="100%"></stop>
        </linearGradient>
        <linearGradient x1="1.37289517%" y1="4.12836041%" x2="98.1537454%" y2="95.4134417%" id="linearGradient-3">
            <stop stop-color="#FA4B7F" offset="0%"></stop>
            <stop stop-color="#F3935D" offset="100%"></stop>
        </linearGradient>
        <linearGradient x1="-168.629495%" y1="-68.3079812%" x2="1044.82458%" y2="657.044131%" id="linearGradient-4">
            <stop stop-color="#FA4B7F" offset="0%"></stop>
            <stop stop-color="#F3935D" offset="100%"></stop>
        </linearGradient>
        <linearGradient x1="-944.056736%" y1="-172.336324%" x2="270.969171%" y2="99.4315743%" id="linearGradient-5">
            <stop stop-color="#FA4B7F" offset="0%"></stop>
            <stop stop-color="#F3935D" offset="100%"></stop>
        </linearGradient>
    </defs>
    <g id="Artboard" stroke="none" stroke-width="1" fill="none" fill-rule="evenodd">
        <g id="ebpto-logo-gradient">
            <g id="Group" transform="translate(2.000000, 0.000000)" fill="#000000">
                <polygon id="Path" points="0.020083682 0.0775862069 2.91213389 0.0775862069 2.91213389 0.681034483 0.873640167 0.681034483 0.873640167 1.76724138 2.60083682 1.76724138 2.60083682 2.37068966 0.873640167 2.37068966 0.873640167 3.50862069 2.93221757 3.50862069 2.93221757 4.11206897 0.020083682 4.11206897"></polygon>
                <polygon id="Path" points="4.71966527 0.689655172 3.44435146 0.689655172 3.44435146 0.0862068966 6.86861925 0.0862068966 6.86861925 0.689655172 5.59330544 0.689655172 5.59330544 4.12068966 4.71966527 4.12068966"></polygon>
                <polygon id="Path" points="7.51129707 0.0775862069 8.3748954 0.0775862069 8.3748954 1.76724138 9.97154812 1.76724138 9.97154812 0.0775862069 10.8351464 0.0775862069 10.8351464 4.11206897 9.97154812 4.11206897 9.97154812 2.37068966 8.3748954 2.37068966 8.3748954 4.11206897 7.51129707 4.11206897"></polygon>
                <polygon id="Path" points="11.8192469 0.0775862069 14.7112971 0.0775862069 14.7112971 0.681034483 12.6728033 0.681034483 12.6728033 1.76724138 14.4 1.76724138 14.4 2.37068966 12.6728033 2.37068966 12.6728033 3.50862069 14.7313808 3.50862069 14.7313808 4.11206897 11.8192469 4.11206897"></polygon>
                <path d="M16.3380753,4.11206897 L15.474477,4.11206897 L15.474477,0.0775862069 L17.2016736,0.0775862069 C17.8041841,0.0775862069 18.1355649,0.163793103 18.3866109,0.370689655 C18.6175732,0.577586207 18.7179916,0.836206897 18.7179916,1.25 C18.7179916,1.93103448 18.4569038,2.26724138 17.8343096,2.40517241 L18.8585774,4.12068966 L17.9046025,4.12068966 L17.0008368,2.47413793 L16.3380753,2.47413793 L16.3380753,4.11206897 Z M17.1514644,1.88793103 C17.6635983,1.88793103 17.874477,1.70689655 17.874477,1.28448276 C17.874477,0.853448276 17.6535565,0.672413793 17.1213389,0.672413793 L16.3280335,0.672413793 L16.3280335,1.88793103 L17.1514644,1.88793103 Z" id="Shape" fill-rule="nonzero"></path>
                <polygon id="Path" points="19.58159 0.0775862069 22.4736402 0.0775862069 22.4736402 0.681034483 20.4351464 0.681034483 20.4351464 1.76724138 22.1623431 1.76724138 22.1623431 2.37068966 20.4351464 2.37068966 20.4351464 3.50862069 22.4937238 3.50862069 22.4937238 4.11206897 19.58159 4.11206897"></polygon>
                <path d="M24.0803347,0.0775862069 L24.0803347,2.61206897 C24.0803347,2.96551724 24.1104603,3.13793103 24.2008368,3.27586207 C24.3414226,3.49137931 24.5322176,3.56896552 24.9138075,3.56896552 C25.3054393,3.56896552 25.516318,3.47413793 25.6468619,3.22413793 C25.7171548,3.09482759 25.7372385,2.92241379 25.7372385,2.61206897 L25.7372385,0.0775862069 L26.6008368,0.0775862069 L26.6008368,2.61206897 C26.6008368,3.20689655 26.5305439,3.47413793 26.3096234,3.70689655 C26.0083682,4.02586207 25.5866109,4.17241379 24.9037657,4.17241379 C24.1707113,4.17241379 23.7188285,4.00862069 23.4376569,3.63793103 C23.2669456,3.4137931 23.2066946,3.1637931 23.2066946,2.61206897 L23.2066946,0.0775862069 L24.0803347,0.0775862069 Z" id="Path"></path>
                <polygon id="Path" points="27.5648536 0.0775862069 28.3782427 0.0775862069 29.6736402 2.39655172 30.9690377 0.0775862069 31.7824268 0.0775862069 31.7824268 4.11206897 30.948954 4.11206897 30.948954 1.46551724 29.9447699 3.24137931 29.3924686 3.24137931 28.3882845 1.46551724 28.3882845 4.11206897 27.5548117 4.11206897 27.5548117 0.0775862069"></polygon>
                <path d="M33.9213389,0.0775862069 L35.7288703,0.0775862069 C36.2711297,0.0775862069 36.5623431,0.146551724 36.7933054,0.327586207 C37.0343096,0.50862069 37.1648536,0.810344828 37.1648536,1.15517241 C37.1648536,1.55172414 37.0242678,1.81034483 36.7129707,2 C36.7330544,2.00862069 36.7531381,2.02586207 36.7832636,2.04310345 C36.9640167,2.1637931 37.0242678,2.21551724 37.0845188,2.32758621 C37.1949791,2.50862069 37.2451883,2.73275862 37.2451883,2.99137931 C37.2451883,3.39655172 37.1046025,3.70689655 36.8133891,3.89655172 C36.5723849,4.05172414 36.3112971,4.11206897 35.809205,4.11206897 L33.9112971,4.11206897 L33.9112971,0.0775862069 L33.9213389,0.0775862069 Z M35.6786611,1.75862069 C36.1305439,1.75862069 36.3213389,1.59482759 36.3213389,1.21551724 C36.3213389,0.836206897 36.1205021,0.672413793 35.6786611,0.672413793 L34.7849372,0.672413793 L34.7849372,1.75862069 L35.6786611,1.75862069 Z M35.7690377,3.51724138 C36.2209205,3.51724138 36.4117155,3.34482759 36.4117155,2.93965517 C36.4117155,2.53448276 36.2108787,2.35344828 35.7690377,2.35344828 L34.7849372,2.35344828 L34.7849372,3.52586207 L35.7690377,3.52586207 L35.7690377,3.51724138 Z" id="Shape" fill-rule="nonzero"></path>
                <polygon id="Path" points="37.9481172 0.0775862069 38.8117155 0.0775862069 38.8117155 3.50862069 40.860251 3.50862069 40.860251 4.11206897 37.9481172 4.11206897"></polygon>
                <path d="M41.3422594,1.62068966 C41.3422594,1.02586207 41.4426778,0.698275862 41.7338912,0.431034483 C42.0451883,0.146551724 42.4468619,0.0172413793 43.0794979,0.0172413793 C43.7623431,0.0172413793 44.1841004,0.163793103 44.4953975,0.5 C44.7364017,0.75862069 44.8167364,1.06896552 44.8167364,1.62068966 L44.8167364,2.57758621 C44.8167364,3.17241379 44.716318,3.5 44.4251046,3.76724138 C44.1138075,4.05172414 43.7121339,4.18103448 43.0794979,4.18103448 C42.4066946,4.18103448 41.9748954,4.03448276 41.6635983,3.69827586 C41.432636,3.44827586 41.3422594,3.12931034 41.3422594,2.57758621 L41.3422594,1.62068966 Z M43.9531381,1.68103448 C43.9531381,0.913793103 43.7121339,0.620689655 43.0794979,0.620689655 C42.4468619,0.620689655 42.2058577,0.913793103 42.2058577,1.68103448 L42.2058577,2.51724138 C42.2058577,3.28448276 42.4468619,3.57758621 43.0794979,3.57758621 C43.7121339,3.57758621 43.9531381,3.28448276 43.9531381,2.51724138 L43.9531381,1.68103448 Z" id="Shape" fill-rule="nonzero"></path>
                <path d="M48.9037657,3.06034483 C48.8535565,3.80172414 48.3112971,4.17241379 47.2569038,4.17241379 C46.6041841,4.17241379 46.1824268,4.01724138 45.8912134,3.67241379 C45.6702929,3.4137931 45.5899582,3.09482759 45.5899582,2.52586207 L45.5899582,1.6637931 C45.5899582,1.03448276 45.6903766,0.706896552 45.9615063,0.439655172 C46.2527197,0.146551724 46.6543933,0.0172413793 47.2569038,0.0172413793 C48.2711297,0.0172413793 48.7933054,0.387931034 48.8334728,1.15517241 L48.0401674,1.20689655 C47.9799163,0.801724138 47.7288703,0.612068966 47.2669456,0.612068966 C46.6644351,0.612068966 46.4535565,0.896551724 46.4535565,1.70689655 L46.4535565,2.46551724 C46.4535565,3.27586207 46.6644351,3.56034483 47.2870293,3.56034483 C47.7690377,3.56034483 48.0401674,3.37068966 48.1004184,2.96551724 L48.9037657,3.06034483 Z" id="Path"></path>
                <polygon id="Path" points="49.6569038 0.0775862069 50.5104603 0.0775862069 50.5104603 1.89655172 52.0970711 0.0775862069 53.1112971 0.0775862069 51.5648536 1.72413793 53.2016736 4.11206897 52.2075314 4.11206897 51.0025105 2.23275862 50.5104603 2.77586207 50.5104603 4.11206897 49.6569038 4.11206897"></polygon>
                <path d="M56.7364017,3.06034483 C56.6861925,3.80172414 56.1439331,4.17241379 55.0895397,4.17241379 C54.4368201,4.17241379 54.0150628,4.01724138 53.7238494,3.67241379 C53.5029289,3.4137931 53.4225941,3.09482759 53.4225941,2.52586207 L53.4225941,1.6637931 C53.4225941,1.03448276 53.5230126,0.706896552 53.7941423,0.439655172 C54.0853556,0.146551724 54.4870293,0.0172413793 55.0895397,0.0172413793 C56.1037657,0.0172413793 56.6259414,0.387931034 56.6661088,1.15517241 L55.8728033,1.20689655 C55.8125523,0.801724138 55.5615063,0.612068966 55.0995816,0.612068966 C54.4970711,0.612068966 54.2861925,0.896551724 54.2861925,1.70689655 L54.2861925,2.46551724 C54.2861925,3.27586207 54.4970711,3.56034483 55.1196653,3.56034483 C55.6016736,3.56034483 55.8728033,3.37068966 55.9330544,2.96551724 L56.7364017,3.06034483 Z" id="Path"></path>
                <polygon id="Path" points="57.4794979 0.0775862069 58.3430962 0.0775862069 58.3430962 1.76724138 59.939749 1.76724138 59.939749 0.0775862069 60.8033473 0.0775862069 60.8033473 4.11206897 59.939749 4.11206897 59.939749 2.37068966 58.3430962 2.37068966 58.3430962 4.11206897 57.4794979 4.11206897"></polygon>
                <path d="M62.5707113,3.31896552 L62.2694561,4.11206897 L61.3355649,4.11206897 L63.0426778,0.0775862069 L63.8761506,0.0775862069 L65.5832636,4.11206897 L64.6493724,4.11206897 L64.358159,3.31896552 L62.5707113,3.31896552 Z M63.4644351,0.965517241 L62.78159,2.72413793 L64.1472803,2.72413793 L63.4644351,0.965517241 Z" id="Shape" fill-rule="nonzero"></path>
                <polygon id="Path" points="65.8945607 0.0775862069 66.758159 0.0775862069 66.758159 4.11206897 65.8945607 4.11206897"></polygon>
                <polygon id="Path" points="67.7422594 0.0775862069 68.5757322 0.0775862069 70.4535565 2.87068966 70.4535565 0.0775862069 71.2870293 0.0775862069 71.2870293 4.11206897 70.4535565 4.11206897 68.5857741 1.32758621 68.5857741 4.12068966 67.7523013 4.12068966 67.7523013 0.0775862069"></polygon>
                <path d="M0.873640167,9.89655172 L0.010041841,9.89655172 L0.010041841,5.86206897 L1.58661088,5.86206897 C2.23933054,5.86206897 2.59079498,5.94827586 2.85188285,6.18103448 C3.09288703,6.40517241 3.20334728,6.69827586 3.20334728,7.13793103 C3.20334728,7.62068966 3.08284519,7.93103448 2.7916318,8.15517241 C2.53054393,8.35344828 2.18912134,8.43103448 1.59665272,8.43103448 L0.883682008,8.43103448 L0.883682008,9.89655172 L0.873640167,9.89655172 Z M1.59665272,7.8362069 C2.13891213,7.8362069 2.34979079,7.62931034 2.34979079,7.13793103 C2.34979079,6.64655172 2.12887029,6.44827586 1.59665272,6.44827586 L0.863598326,6.44827586 L0.863598326,7.8362069 L1.59665272,7.8362069 Z" id="Shape" fill-rule="nonzero"></path>
                <path d="M4.30794979,9.09482759 L4.00669456,9.88793103 L3.07280335,9.88793103 L4.77991632,5.85344828 L5.61338912,5.85344828 L7.32050209,9.88793103 L6.38661088,9.88793103 L6.09539749,9.09482759 L4.30794979,9.09482759 Z M5.20167364,6.74137931 L4.51882845,8.5 L5.88451883,8.5 L5.20167364,6.74137931 Z" id="Shape" fill-rule="nonzero"></path>
                <polygon id="Path" points="8.26443515 6.46551724 6.9790795 6.46551724 6.9790795 5.86206897 10.4033473 5.86206897 10.4033473 6.46551724 9.12803347 6.46551724 9.12803347 9.89655172 8.26443515 9.89655172 8.26443515 6.46551724"></polygon>
                <polygon id="Path" points="11.0460251 5.86206897 13.9380753 5.86206897 13.9380753 6.46551724 11.8995816 6.46551724 11.8995816 7.55172414 13.6267782 7.55172414 13.6267782 8.15517241 11.8995816 8.15517241 11.8995816 9.29310345 13.958159 9.29310345 13.958159 9.89655172 11.0460251 9.89655172"></polygon>
                <polygon id="Path" points="14.7012552 5.86206897 15.534728 5.86206897 17.4125523 8.65517241 17.4125523 5.86206897 18.2460251 5.86206897 18.2460251 9.89655172 17.4125523 9.89655172 15.534728 7.10344828 15.534728 9.89655172 14.7012552 9.89655172"></polygon>
                <polygon id="Path" points="20.1740586 6.46551724 18.8887029 6.46551724 18.8887029 5.86206897 22.3129707 5.86206897 22.3129707 6.46551724 21.0376569 6.46551724 21.0376569 9.89655172 20.1740586 9.89655172"></polygon>
                <path d="M24.5523013,9.09482759 L24.251046,9.88793103 L23.3171548,9.88793103 L25.0242678,5.85344828 L25.8577406,5.85344828 L27.5648536,9.88793103 L26.6309623,9.88793103 L26.339749,9.09482759 L24.5523013,9.09482759 Z M25.4460251,6.74137931 L24.7631799,8.5 L26.1288703,8.5 L25.4460251,6.74137931 Z" id="Shape" fill-rule="nonzero"></path>
                <polygon id="Path" points="27.8761506 5.86206897 28.7096234 5.86206897 30.5874477 8.65517241 30.5874477 5.86206897 31.4209205 5.86206897 31.4209205 9.89655172 30.5874477 9.89655172 28.7096234 7.10344828 28.7096234 9.89655172 27.8761506 9.89655172"></polygon>
                <path d="M32.4150628,5.86206897 L34.0117155,5.86206897 C35.2468619,5.84482759 35.8292887,6.36206897 35.7991632,7.42241379 L35.7991632,8.32758621 C35.8292887,9.39655172 35.2569038,9.90517241 34.0117155,9.89655172 L32.4150628,9.89655172 L32.4150628,5.86206897 Z M33.851046,9.30172414 C34.6443515,9.31034483 34.9054393,9.06034483 34.925523,8.27586207 L34.925523,7.48275862 C34.9154812,6.69827586 34.6443515,6.43965517 33.851046,6.45689655 L33.2686192,6.45689655 L33.2686192,9.30172414 L33.851046,9.30172414 Z" id="Shape" fill-rule="nonzero"></path>
                <polygon id="Path" points="38.6410042 6.46551724 37.3556485 6.46551724 37.3556485 5.86206897 40.7799163 5.86206897 40.7799163 6.46551724 39.5046025 6.46551724 39.5046025 9.89655172 38.6410042 9.89655172"></polygon>
                <path d="M42.2861925,9.89655172 L41.4225941,9.89655172 L41.4225941,5.86206897 L43.1497908,5.86206897 C43.7523013,5.86206897 44.083682,5.94827586 44.334728,6.15517241 C44.5656904,6.36206897 44.6661088,6.62068966 44.6661088,7.03448276 C44.6661088,7.71551724 44.4050209,8.05172414 43.7824268,8.18965517 L44.8066946,9.90517241 L43.8527197,9.90517241 L42.948954,8.25862069 L42.2861925,8.25862069 L42.2861925,9.89655172 Z M43.0995816,7.67241379 C43.6117155,7.67241379 43.8225941,7.49137931 43.8225941,7.06896552 C43.8225941,6.63793103 43.6016736,6.45689655 43.0694561,6.45689655 L42.2761506,6.45689655 L42.2761506,7.67241379 L43.0995816,7.67241379 Z" id="Shape" fill-rule="nonzero"></path>
                <path d="M46.423431,9.09482759 L46.1221757,9.88793103 L45.1882845,9.88793103 L46.8953975,5.85344828 L47.7288703,5.85344828 L49.4359833,9.88793103 L48.5020921,9.88793103 L48.2108787,9.09482759 L46.423431,9.09482759 Z M47.3171548,6.74137931 L46.6343096,8.5 L48,8.5 L47.3171548,6.74137931 Z" id="Shape" fill-rule="nonzero"></path>
                <path d="M49.7472803,5.86206897 L51.3439331,5.86206897 C52.5790795,5.84482759 53.1615063,6.36206897 53.1313808,7.42241379 L53.1313808,8.32758621 C53.1615063,9.39655172 52.5891213,9.90517241 51.3439331,9.89655172 L49.7472803,9.89655172 L49.7472803,5.86206897 Z M51.1832636,9.30172414 C51.976569,9.31034483 52.2376569,9.06034483 52.2577406,8.27586207 L52.2577406,7.48275862 C52.2476987,6.69827586 51.976569,6.43965517 51.1832636,6.45689655 L50.6108787,6.45689655 L50.6108787,9.30172414 L51.1832636,9.30172414 Z" id="Shape" fill-rule="nonzero"></path>
                <polygon id="Path" points="53.9949791 5.86206897 56.8870293 5.86206897 56.8870293 6.46551724 54.8485356 6.46551724 54.8485356 7.55172414 56.5757322 7.55172414 56.5757322 8.15517241 54.8485356 8.15517241 54.8485356 9.29310345 56.907113 9.29310345 56.907113 9.89655172 53.9949791 9.89655172"></polygon>
                <polygon id="Path" points="57.6502092 5.86206897 58.4635983 5.86206897 59.7589958 8.18103448 61.0543933 5.86206897 61.8677824 5.86206897 61.8677824 9.89655172 61.0343096 9.89655172 61.0343096 7.25 60.0301255 9.02586207 59.4778243 9.02586207 58.4736402 7.25 58.4736402 9.89655172 57.6401674 9.89655172 57.6401674 5.86206897"></polygon>
                <path d="M63.6351464,9.09482759 L63.3338912,9.88793103 L62.4,9.88793103 L64.107113,5.85344828 L64.9405858,5.85344828 L66.6476987,9.88793103 L65.7138075,9.88793103 L65.4225941,9.09482759 L63.6351464,9.09482759 Z M64.5188285,6.74137931 L63.8359833,8.5 L65.2016736,8.5 L64.5188285,6.74137931 Z" id="Shape" fill-rule="nonzero"></path>
                <path d="M67.8225941,9.89655172 L66.9589958,9.89655172 L66.9589958,5.86206897 L68.6861925,5.86206897 C69.2887029,5.86206897 69.6200837,5.94827586 69.8711297,6.15517241 C70.1020921,6.36206897 70.2025105,6.62068966 70.2025105,7.03448276 C70.2025105,7.71551724 69.9414226,8.05172414 69.3188285,8.18965517 L70.3430962,9.90517241 L69.3891213,9.90517241 L68.4853556,8.25862069 L67.8225941,8.25862069 L67.8225941,9.89655172 Z M68.6259414,7.67241379 C69.1380753,7.67241379 69.348954,7.49137931 69.348954,7.06896552 C69.348954,6.63793103 69.1280335,6.45689655 68.5958159,6.45689655 L67.8025105,6.45689655 L67.8025105,7.67241379 L68.6259414,7.67241379 Z" id="Shape" fill-rule="nonzero"></path>
                <polygon id="Path" points="71.0661088 5.86206897 71.9196653 5.86206897 71.9196653 7.68103448 73.5062762 5.86206897 74.5205021 5.86206897 72.9740586 7.50862069 74.6108787 9.89655172 73.6167364 9.89655172 72.4117155 8.01724138 71.9196653 8.56034483 71.9196653 9.89655172 71.0661088 9.89655172"></polygon>
                <path d="M75.9866109,7.39655172 C75.9866109,6.80172414 76.0870293,6.47413793 76.3782427,6.20689655 C76.6895397,5.92241379 77.0912134,5.79310345 77.7238494,5.79310345 C78.4066946,5.79310345 78.8284519,5.93965517 79.139749,6.27586207 C79.3807531,6.53448276 79.4610879,6.84482759 79.4610879,7.39655172 L79.4610879,8.36206897 C79.4610879,8.95689655 79.3606695,9.28448276 79.0694561,9.55172414 C78.758159,9.8362069 78.3564854,9.96551724 77.7238494,9.96551724 C77.051046,9.96551724 76.6192469,9.81896552 76.3079498,9.48275862 C76.0769874,9.23275862 75.9866109,8.9137931 75.9866109,8.36206897 L75.9866109,7.39655172 Z M78.5974895,7.45689655 C78.5974895,6.68965517 78.3564854,6.39655172 77.7238494,6.39655172 C77.0912134,6.39655172 76.8502092,6.68965517 76.8502092,7.45689655 L76.8502092,8.29310345 C76.8502092,9.06034483 77.0912134,9.35344828 77.7238494,9.35344828 C78.3564854,9.35344828 78.5974895,9.06034483 78.5974895,8.29310345 L78.5974895,7.45689655 Z" id="Shape" fill-rule="nonzero"></path>
                <polygon id="Path" points="80.3548117 5.86206897 83.2066946 5.86206897 83.2066946 6.46551724 81.2083682 6.46551724 81.2083682 7.5862069 82.8853556 7.5862069 82.8853556 8.18965517 81.2083682 8.18965517 81.2083682 9.89655172 80.3447699 9.89655172 80.3447699 5.86206897"></polygon>
                <polygon id="Path" points="83.7790795 5.86206897 86.6309623 5.86206897 86.6309623 6.46551724 84.632636 6.46551724 84.632636 7.5862069 86.3096234 7.5862069 86.3096234 8.18965517 84.632636 8.18965517 84.632636 9.89655172 83.7690377 9.89655172 83.7690377 5.86206897"></polygon>
                <polygon id="Path" points="87.2033473 5.86206897 88.0669456 5.86206897 88.0669456 9.89655172 87.2033473 9.89655172"></polygon>
                <path d="M92.2543933,8.84482759 C92.2041841,9.5862069 91.6619247,9.95689655 90.6075314,9.95689655 C89.9548117,9.95689655 89.5330544,9.80172414 89.241841,9.45689655 C89.0209205,9.19827586 88.9405858,8.87931034 88.9405858,8.31034483 L88.9405858,7.44827586 C88.9405858,6.81896552 89.0410042,6.49137931 89.3121339,6.22413793 C89.6033473,5.93103448 90.0050209,5.80172414 90.6075314,5.80172414 C91.6217573,5.80172414 92.1439331,6.17241379 92.1841004,6.93965517 L91.390795,6.99137931 C91.3305439,6.5862069 91.0794979,6.39655172 90.6175732,6.39655172 C90.0150628,6.39655172 89.8041841,6.68103448 89.8041841,7.49137931 L89.8041841,8.25 C89.8041841,9.06034483 90.0150628,9.34482759 90.6376569,9.34482759 C91.1196653,9.34482759 91.390795,9.15517241 91.451046,8.75 L92.2543933,8.84482759 Z" id="Path"></path>
                <polygon id="Path" points="93.0075314 5.86206897 95.8995816 5.86206897 95.8995816 6.46551724 93.8610879 6.46551724 93.8610879 7.55172414 95.5882845 7.55172414 95.5882845 8.15517241 93.8610879 8.15517241 93.8610879 9.29310345 95.9196653 9.29310345 95.9196653 9.89655172 93.0075314 9.89655172"></polygon>
            </g>
            <g id="Group" transform="translate(0.000000, 14.000000)">
                <path d="M34.845567,23.3085546 C36.5934021,23.3085546 37.6441237,22.7067847 37.997732,21.5132743 C38.3513402,20.319764 38.5230928,19.0058997 38.5230928,17.5817109 C38.5230928,17.5616519 38.5230928,17.5415929 38.5230928,17.5315634 C38.5230928,17.5215339 38.5230928,17.5014749 38.5230928,17.4814159 C38.5230928,16.0772861 38.3412371,14.8035398 37.9775258,13.640118 C37.6138144,12.4766962 36.5630928,11.9050147 34.845567,11.9050147 C33.3098969,11.9050147 32.3298969,12.3964602 31.905567,13.3893805 C31.4812371,14.3823009 31.2387629,15.4654867 31.1983505,16.6489676 C31.1983505,16.819469 31.1983505,16.979941 31.1983505,17.140413 C31.1983505,17.300885 31.1983505,17.4513274 31.1983505,17.5917404 C31.1983505,17.7321534 31.1983505,17.8825959 31.1983505,18.0230088 C31.1983505,18.1634218 31.1983505,18.3138643 31.1983505,18.4542773 C31.248866,19.6578171 31.4812371,20.7710914 31.8954639,21.7840708 C32.3096907,22.8070796 33.2896907,23.3085546 34.845567,23.3085546 Z" id="Path" fill="url(#linearGradient-1)"></path>
                <path d="M53.0917526,23.3085546 C54.8193814,23.3085546 55.86,22.7268437 56.2237113,21.5734513 C56.5874227,20.4100295 56.7692784,19.1362832 56.7692784,17.7321534 C56.7692784,17.7120944 56.7692784,17.6920354 56.7692784,17.6820059 C56.7692784,17.6719764 56.7692784,17.6519174 56.7692784,17.6318584 C56.7692784,16.2076696 56.5874227,14.8938053 56.2439175,13.700295 C55.8903093,12.5067847 54.8395876,11.9050147 53.0917526,11.9050147 C51.5358763,11.9050147 50.5558763,12.4165192 50.1416495,13.4294985 C49.7274227,14.4424779 49.4950515,15.5557522 49.4445361,16.759292 C49.4445361,16.899705 49.4445361,17.0501475 49.4445361,17.1905605 C49.4445361,17.3309735 49.4445361,17.4814159 49.4445361,17.6218289 C49.4445361,17.7622419 49.4445361,17.9227139 49.4445361,18.0731563 C49.4445361,18.2336283 49.4445361,18.3941003 49.4445361,18.5646018 C49.4950515,19.7480826 49.7274227,20.8312684 50.1517526,21.8241888 C50.5760825,22.8171091 51.5560825,23.3085546 53.0917526,23.3085546 Z" id="Path" fill="url(#linearGradient-2)"></path>
                <path d="M94.2618557,0.0501474926 L68.5191753,0.0501474926 L68.5191753,8.43480826 L71.216701,8.43480826 L71.216701,11.2631268 L68.5191753,11.2631268 L68.5191753,21.9445428 C68.5191753,22.4560472 68.6202062,22.8070796 68.8323711,23.0076696 C69.034433,23.2082596 69.3779381,23.3185841 69.8325773,23.3185841 L71.216701,23.3185841 L71.216701,26.7988201 L69.2870103,26.7988201 C67.9938144,26.7988201 66.9329897,26.4076696 66.0742268,25.6253687 C65.225567,24.8430678 64.8012371,23.719764 64.8012371,22.2755162 L64.8012371,11.2530973 L62.942268,11.2530973 L62.942268,8.42477876 L64.8012371,8.42477876 L64.8012371,0.0401179941 L31.1983505,0.0401179941 L31.1983505,10.380531 C31.905567,9.72861357 32.6430928,9.20707965 33.4008247,8.80589971 C34.1686598,8.40471976 35.0274227,8.20412979 35.9771134,8.20412979 C37.1187629,8.20412979 38.0987629,8.42477876 38.9171134,8.87610619 C39.7354639,9.32743363 40.402268,9.89911504 40.937732,10.5911504 C40.9579381,10.6112094 40.9781443,10.6412979 40.9882474,10.6613569 C40.9983505,10.6814159 41.0185567,10.7014749 41.0387629,10.7014749 C41.5035052,11.3533923 41.816701,12.1156342 41.9884536,12.9982301 C42.1602062,13.880826 42.2410309,15.4053097 42.2410309,17.5817109 C42.2410309,19.7781711 42.1602062,21.3227139 41.9884536,22.2153392 C41.816701,23.1079646 41.5035052,23.8702065 41.0387629,24.4920354 C41.0185567,24.4920354 40.9983505,24.5020649 40.9882474,24.5321534 C40.9781443,24.5522124 40.9579381,24.5823009 40.937732,24.6023599 C40.402268,25.2743363 39.7253608,25.8359882 38.9171134,26.2873156 C38.0987629,26.7386431 37.1187629,26.959292 35.9771134,26.959292 C35.0274227,26.959292 34.1383505,26.7687316 33.3098969,26.3775811 C32.4814433,25.9964602 31.7742268,25.4849558 31.1983505,24.8530973 L31.1983505,26.7687316 L27.4804124,26.7687316 L27.4804124,0.0501474926 L3.73814433,0.0501474926 C1.69731959,0.0501474926 0.0404123711,1.69498525 0.0404123711,3.72094395 L0.0404123711,30.319174 C0.0404123711,32.3451327 1.69731959,33.9899705 3.73814433,33.9899705 L45.7265979,33.9899705 L45.7265979,8.43480826 L49.4445361,8.43480826 L49.4445361,10.3504425 C50.0305155,9.71858407 50.737732,9.20707965 51.5560825,8.8159292 C52.3845361,8.41474926 53.2736082,8.21415929 54.223299,8.21415929 C55.3649485,8.21415929 56.3449485,8.43480826 57.163299,8.88613569 C57.9816495,9.33746313 58.6484536,9.90914454 59.1839175,10.6011799 C59.2041237,10.6212389 59.2243299,10.6513274 59.234433,10.6713864 C59.2445361,10.6914454 59.2647423,10.7115044 59.2849485,10.7115044 C59.7496907,11.3433628 60.0628866,12.0955752 60.2346392,12.9882006 C60.4063918,13.880826 60.4872165,15.4253687 60.4872165,17.6218289 C60.4872165,19.7982301 60.4063918,21.3227139 60.2346392,22.2053097 C60.0628866,23.0879056 59.7496907,23.8501475 59.2849485,24.5020649 C59.2647423,24.5020649 59.2445361,24.5120944 59.234433,24.5421829 C59.2243299,24.5622419 59.2041237,24.5923304 59.1839175,24.6123894 C58.6484536,25.2843658 57.9715464,25.8460177 57.163299,26.2973451 C56.3449485,26.7486726 55.3649485,26.9693215 54.223299,26.9693215 C53.2736082,26.9693215 52.4148454,26.7787611 51.6470103,26.3876106 C50.8791753,26.0064897 50.1416495,25.4849558 49.4445361,24.8330383 L49.4445361,33.979941 L94.2618557,33.979941 C96.3026804,33.979941 97.9595876,32.3351032 97.9595876,30.3091445 L97.9595876,3.72094395 C97.9595876,1.69498525 96.3026804,0.0501474926 94.2618557,0.0501474926 Z M23.6513402,19.0058997 L12.1237113,19.0058997 C12.1237113,20.500295 12.5480412,21.6336283 13.3865979,22.3958702 C14.2251546,23.1581121 15.2758763,23.539233 16.5387629,23.539233 C16.6802062,23.539233 16.8317526,23.5292035 16.9731959,23.519174 C17.1146392,23.5091445 17.2661856,23.4890855 17.4076289,23.4690265 C17.963299,23.3687316 18.5290722,23.1781711 19.0847423,22.8873156 C19.6404124,22.5964602 20.145567,22.2253687 20.58,21.7640118 L23.2775258,24.040708 C22.3783505,25.0837758 21.3478351,25.8259587 20.1960825,26.2873156 C19.0443299,26.7486726 17.8420619,26.979351 16.5993814,26.979351 C16.3569072,26.979351 16.114433,26.9693215 15.8921649,26.959292 C15.6597938,26.9492625 15.4274227,26.9292035 15.1849485,26.9091445 C13.4876289,26.6884956 11.9216495,25.9262537 10.5173196,24.6123894 C9.1028866,23.2985251 8.4057732,20.9817109 8.4057732,17.6820059 C8.4057732,14.4926254 9.08268041,12.1958702 10.4263918,10.7817109 C11.7802062,9.36755162 13.2653608,8.54513274 14.8919588,8.30442478 C15.0839175,8.28436578 15.2758763,8.26430678 15.457732,8.25427729 C15.6395876,8.24424779 15.8315464,8.23421829 16.0235052,8.23421829 C18.0643299,8.23421829 19.8424742,8.93628319 21.3680412,10.3303835 C22.8835052,11.7345133 23.6513402,13.6100295 23.6513402,15.9769912 L23.6513402,19.0058997 Z M89.1395876,21.9746313 C88.8364948,22.9374631 88.3414433,23.8100295 87.6645361,24.5823009 C87.6443299,24.6023599 87.6140206,24.6324484 87.5938144,24.6525074 C87.543299,24.7026549 87.5028866,24.7528024 87.4624742,24.7929204 C87.4220619,24.8430678 87.3816495,24.8932153 87.331134,24.9333333 C86.7956701,25.4448378 86.0985567,25.9061947 85.2296907,26.3274336 C84.3709278,26.7486726 83.2797938,26.959292 81.9663918,26.959292 C80.6529897,26.959292 79.5618557,26.7486726 78.7030928,26.3274336 C77.8443299,25.9061947 77.1371134,25.4448378 76.6016495,24.9333333 C76.551134,24.8831858 76.5107216,24.8330383 76.4703093,24.7929204 C76.4298969,24.7427729 76.3894845,24.6926254 76.3389691,24.6525074 C76.3187629,24.6324484 76.2884536,24.6023599 76.2682474,24.5823009 C75.5913402,23.8100295 75.0962887,22.9374631 74.7931959,21.9746313 C74.4901031,21.0117994 74.3385567,19.5474926 74.3385567,17.5917404 C74.3385567,15.6359882 74.4901031,14.1817109 74.7931959,13.2289086 C75.0962887,12.2761062 75.5913402,11.4135693 76.2682474,10.6412979 C76.2884536,10.6212389 76.3187629,10.5911504 76.3389691,10.5710914 C76.3894845,10.520944 76.4298969,10.4707965 76.4703093,10.4306785 C76.5107216,10.380531 76.551134,10.3303835 76.6016495,10.2902655 C77.1371134,9.77876106 77.8342268,9.31740413 78.7030928,8.87610619 C79.5618557,8.44483776 80.6529897,8.22418879 81.9663918,8.22418879 C83.2797938,8.22418879 84.3709278,8.44483776 85.2296907,8.87610619 C86.0884536,9.30737463 86.7956701,9.77876106 87.331134,10.2902655 C87.3816495,10.340413 87.4220619,10.3905605 87.4624742,10.4306785 C87.5028866,10.480826 87.543299,10.5309735 87.5938144,10.5710914 C87.6140206,10.5911504 87.6443299,10.6212389 87.6645361,10.6412979 C88.3414433,11.4135693 88.8364948,12.2761062 89.1395876,13.2289086 C89.4426804,14.1817109 89.5942268,15.6359882 89.5942268,17.5917404 C89.5942268,19.5474926 89.4426804,21.0117994 89.1395876,21.9746313 Z" id="Shape" fill="url(#linearGradient-3)" fill-rule="nonzero"></path>
                <path d="M16.0336082,11.6843658 C14.9424742,11.6843658 14.0230928,12.0454277 13.2956701,12.7675516 C12.5682474,13.4896755 12.1742268,14.5528024 12.1237113,15.9569322 L19.9334021,15.9569322 C19.8828866,14.5528024 19.4989691,13.499705 18.7614433,12.7675516 C18.0340206,12.0554572 17.1247423,11.6843658 16.0336082,11.6843658 Z" id="Path" fill="url(#linearGradient-4)"></path>
                <path d="M85.1791753,13.5699115 C85.1589691,13.519764 85.1286598,13.4696165 85.0882474,13.4094395 C85.0478351,13.3492625 85.0074227,13.299115 84.9569072,13.2489676 C84.6841237,12.8678466 84.28,12.5469027 83.734433,12.2861357 C83.188866,12.0353982 82.5927835,11.9050147 81.9663918,11.9050147 C81.3298969,11.9050147 80.7439175,12.0353982 80.1983505,12.2861357 C79.6527835,12.5368732 79.2486598,12.8578171 78.9758763,13.2489676 C78.9253608,13.299115 78.8849485,13.3492625 78.8445361,13.4094395 C78.8041237,13.4696165 78.7738144,13.519764 78.7536082,13.5699115 C78.4909278,14.0011799 78.2989691,14.4926254 78.2080412,15.0342183 C78.1070103,15.5758112 78.0665979,16.4283186 78.0665979,17.5917404 C78.0665979,18.7752212 78.1171134,19.6377581 78.2080412,20.179351 C78.3090722,20.720944 78.4909278,21.2123894 78.7536082,21.6436578 C78.7738144,21.6938053 78.8041237,21.7439528 78.8445361,21.8041298 C78.8849485,21.8643068 78.9253608,21.9144543 78.9758763,21.9646018 C79.2385567,22.3557522 79.6527835,22.6666667 80.1983505,22.9274336 C80.7439175,23.1781711 81.3298969,23.3085546 81.9663918,23.3085546 C82.6028866,23.3085546 83.188866,23.1781711 83.734433,22.9274336 C84.28,22.6766962 84.6841237,22.3557522 84.9569072,21.9646018 C85.0074227,21.9144543 85.0478351,21.8643068 85.0882474,21.8041298 C85.1286598,21.7439528 85.1589691,21.6938053 85.1791753,21.6436578 C85.4418557,21.2123894 85.6237113,20.720944 85.7247423,20.179351 C85.8257732,19.6377581 85.8661856,18.7852507 85.8661856,17.6218289 C85.8661856,16.4383481 85.8156701,15.5758112 85.7247423,15.0342183 C85.6338144,14.4926254 85.4519588,14.0112094 85.1791753,13.5699115 Z" id="Path" fill="url(#linearGradient-5)"></path>
            </g>
        </g>
    </g>
</svg>