<?xml version="1.0" encoding="UTF-8"?>
<svg width="161px" height="80px" viewBox="0 0 161 80" version="1.1" xmlns="http://www.w3.org/2000/svg" xmlns:xlink="http://www.w3.org/1999/xlink">
    <!-- Generator: Sketch 52.2 (67145) - http://www.bohemiancoding.com/sketch -->
    <title>ENSFull</title>
    <desc>Created with Sketch.</desc>
    <defs>
        <linearGradient x1="-428.338483%" y1="-50.5021988%" x2="865.454621%" y2="221.265611%" id="linearGradient-1">
            <stop stop-color="#FA4B7F" offset="0%"></stop>
            <stop stop-color="#F3935D" offset="100%"></stop>
        </linearGradient>
        <linearGradient x1="-653.061379%" y1="-97.6938434%" x2="640.731724%" y2="174.073967%" id="linearGradient-2">
            <stop stop-color="#FA4B7F" offset="0%"></stop>
            <stop stop-color="#F3935D" offset="100%"></stop>
        </linearGradient>
        <linearGradient x1="1.37289517%" y1="4.12836041%" x2="98.1537454%" y2="95.4134417%" id="linearGradient-3">
            <stop stop-color="#FA4B7F" offset="0%"></stop>
            <stop stop-color="#F3935D" offset="100%"></stop>
        </linearGradient>
        <linearGradient x1="-168.629495%" y1="-68.3079812%" x2="1044.82458%" y2="657.044131%" id="linearGradient-4">
            <stop stop-color="#FA4B7F" offset="0%"></stop>
            <stop stop-color="#F3935D" offset="100%"></stop>
        </linearGradient>
        <linearGradient x1="-944.056736%" y1="-172.336324%" x2="270.969171%" y2="99.4315743%" id="linearGradient-5">
            <stop stop-color="#FA4B7F" offset="0%"></stop>
            <stop stop-color="#F3935D" offset="100%"></stop>
        </linearGradient>
    </defs>
    <g id="ENSFull" stroke="none" stroke-width="1" fill="none" fill-rule="evenodd">
        <g id="ebpto-logo-gradient" transform="translate(0.000000, 1.000000)">
            <g id="Group" transform="translate(3.000000, 0.000000)" fill="#000000">
                <polygon id="Path" points="0.0330543933 0.124137931 4.79288703 0.124137931 4.79288703 1.08965517 1.43786611 1.08965517 1.43786611 2.82758621 4.28054393 2.82758621 4.28054393 3.79310345 1.43786611 3.79310345 1.43786611 5.6137931 4.82594142 5.6137931 4.82594142 6.57931034 0.0330543933 6.57931034"></polygon>
                <polygon id="Path" points="7.76778243 1.10344828 5.66882845 1.10344828 5.66882845 0.137931034 11.3046025 0.137931034 11.3046025 1.10344828 9.20564854 1.10344828 9.20564854 6.59310345 7.76778243 6.59310345"></polygon>
                <polygon id="Path" points="12.3623431 0.124137931 13.783682 0.124137931 13.783682 2.82758621 16.4115063 2.82758621 16.4115063 0.124137931 17.8328452 0.124137931 17.8328452 6.57931034 16.4115063 6.57931034 16.4115063 3.79310345 13.783682 3.79310345 13.783682 6.57931034 12.3623431 6.57931034"></polygon>
                <polygon id="Path" points="19.4525105 0.124137931 24.2123431 0.124137931 24.2123431 1.08965517 20.8573222 1.08965517 20.8573222 2.82758621 23.7 2.82758621 23.7 3.79310345 20.8573222 3.79310345 20.8573222 5.6137931 24.2453975 5.6137931 24.2453975 6.57931034 19.4525105 6.57931034"></polygon>
                <path d="M26.889749,6.57931034 L25.46841,6.57931034 L25.46841,0.124137931 L28.3110879,0.124137931 C29.3027197,0.124137931 29.8481172,0.262068966 30.2612971,0.593103448 C30.6414226,0.924137931 30.8066946,1.33793103 30.8066946,2 C30.8066946,3.08965517 30.3769874,3.62758621 29.3523013,3.84827586 L31.0380753,6.59310345 L29.4679916,6.59310345 L27.9805439,3.95862069 L26.889749,3.95862069 L26.889749,6.57931034 Z M28.2284519,3.02068966 C29.0713389,3.02068966 29.41841,2.73103448 29.41841,2.05517241 C29.41841,1.36551724 29.0548117,1.07586207 28.1788703,1.07586207 L26.8732218,1.07586207 L26.8732218,3.02068966 L28.2284519,3.02068966 Z" id="Shape" fill-rule="nonzero"></path>
                <polygon id="Path" points="32.2280335 0.124137931 36.9878661 0.124137931 36.9878661 1.08965517 33.6328452 1.08965517 33.6328452 2.82758621 36.475523 2.82758621 36.475523 3.79310345 33.6328452 3.79310345 33.6328452 5.6137931 37.0209205 5.6137931 37.0209205 6.57931034 32.2280335 6.57931034"></polygon>
                <path d="M39.6322176,0.124137931 L39.6322176,4.17931034 C39.6322176,4.74482759 39.6817992,5.02068966 39.8305439,5.24137931 C40.0619247,5.5862069 40.3759414,5.71034483 41.0039749,5.71034483 C41.6485356,5.71034483 41.9956067,5.55862069 42.2104603,5.15862069 C42.3261506,4.95172414 42.359205,4.67586207 42.359205,4.17931034 L42.359205,0.124137931 L43.7805439,0.124137931 L43.7805439,4.17931034 C43.7805439,5.13103448 43.6648536,5.55862069 43.3012552,5.93103448 C42.8054393,6.44137931 42.1112971,6.67586207 40.9874477,6.67586207 C39.7809623,6.67586207 39.0372385,6.4137931 38.574477,5.82068966 C38.2935146,5.46206897 38.1943515,5.06206897 38.1943515,4.17931034 L38.1943515,0.124137931 L39.6322176,0.124137931 Z" id="Path"></path>
                <polygon id="Path" points="45.3671548 0.124137931 46.7058577 0.124137931 48.8378661 3.83448276 50.9698745 0.124137931 52.3085774 0.124137931 52.3085774 6.57931034 50.9368201 6.57931034 50.9368201 2.34482759 49.2841004 5.1862069 48.3751046 5.1862069 46.7223849 2.34482759 46.7223849 6.57931034 45.3506276 6.57931034 45.3506276 0.124137931"></polygon>
                <path d="M55.8288703,0.124137931 L58.8037657,0.124137931 C59.6962343,0.124137931 60.175523,0.234482759 60.5556485,0.524137931 C60.9523013,0.813793103 61.1671548,1.29655172 61.1671548,1.84827586 C61.1671548,2.48275862 60.9357741,2.89655172 60.423431,3.2 C60.4564854,3.2137931 60.4895397,3.24137931 60.5391213,3.26896552 C60.8366109,3.46206897 60.9357741,3.54482759 61.0349372,3.72413793 C61.2167364,4.0137931 61.2993724,4.37241379 61.2993724,4.7862069 C61.2993724,5.43448276 61.0679916,5.93103448 60.5887029,6.23448276 C60.1920502,6.48275862 59.7623431,6.57931034 58.9359833,6.57931034 L55.8123431,6.57931034 L55.8123431,0.124137931 L55.8288703,0.124137931 Z M58.7211297,2.8137931 C59.4648536,2.8137931 59.7788703,2.55172414 59.7788703,1.94482759 C59.7788703,1.33793103 59.4483264,1.07586207 58.7211297,1.07586207 L57.2502092,1.07586207 L57.2502092,2.8137931 L58.7211297,2.8137931 Z M58.8698745,5.62758621 C59.6135983,5.62758621 59.9276151,5.35172414 59.9276151,4.70344828 C59.9276151,4.05517241 59.5970711,3.76551724 58.8698745,3.76551724 L57.2502092,3.76551724 L57.2502092,5.64137931 L58.8698745,5.64137931 L58.8698745,5.62758621 Z" id="Shape" fill-rule="nonzero"></path>
                <polygon id="Path" points="62.4562762 0.124137931 63.8776151 0.124137931 63.8776151 5.6137931 67.2491632 5.6137931 67.2491632 6.57931034 62.4562762 6.57931034"></polygon>
                <path d="M68.0424686,2.59310345 C68.0424686,1.64137931 68.2077406,1.11724138 68.6870293,0.689655172 C69.1993724,0.234482759 69.8604603,0.0275862069 70.9016736,0.0275862069 C72.025523,0.0275862069 72.7196653,0.262068966 73.2320084,0.8 C73.6286611,1.2137931 73.7608787,1.71034483 73.7608787,2.59310345 L73.7608787,4.12413793 C73.7608787,5.07586207 73.5956067,5.6 73.116318,6.02758621 C72.6039749,6.48275862 71.942887,6.68965517 70.9016736,6.68965517 C69.7943515,6.68965517 69.083682,6.45517241 68.5713389,5.91724138 C68.1912134,5.51724138 68.0424686,5.00689655 68.0424686,4.12413793 L68.0424686,2.59310345 Z M72.3395397,2.68965517 C72.3395397,1.46206897 71.942887,0.993103448 70.9016736,0.993103448 C69.8604603,0.993103448 69.4638075,1.46206897 69.4638075,2.68965517 L69.4638075,4.02758621 C69.4638075,5.25517241 69.8604603,5.72413793 70.9016736,5.72413793 C71.942887,5.72413793 72.3395397,5.25517241 72.3395397,4.02758621 L72.3395397,2.68965517 Z" id="Shape" fill-rule="nonzero"></path>
                <path d="M80.4874477,4.89655172 C80.4048117,6.08275862 79.5123431,6.67586207 77.7769874,6.67586207 C76.7027197,6.67586207 76.0085774,6.42758621 75.5292887,5.87586207 C75.1656904,5.46206897 75.0334728,4.95172414 75.0334728,4.04137931 L75.0334728,2.66206897 C75.0334728,1.65517241 75.1987448,1.13103448 75.6449791,0.703448276 C76.1242678,0.234482759 76.7853556,0.0275862069 77.7769874,0.0275862069 C79.4462343,0.0275862069 80.3056485,0.620689655 80.3717573,1.84827586 L79.0661088,1.93103448 C78.9669456,1.28275862 78.5537657,0.979310345 77.7935146,0.979310345 C76.8018828,0.979310345 76.4548117,1.43448276 76.4548117,2.73103448 L76.4548117,3.94482759 C76.4548117,5.24137931 76.8018828,5.69655172 77.826569,5.69655172 C78.6198745,5.69655172 79.0661088,5.39310345 79.165272,4.74482759 L80.4874477,4.89655172 Z" id="Path"></path>
                <polygon id="Path" points="81.7269874 0.124137931 83.1317992 0.124137931 83.1317992 3.03448276 85.7430962 0.124137931 87.4123431 0.124137931 84.8671548 2.75862069 87.5610879 6.57931034 85.9248954 6.57931034 83.9416318 3.57241379 83.1317992 4.44137931 83.1317992 6.57931034 81.7269874 6.57931034"></polygon>
                <path d="M93.3786611,4.89655172 C93.2960251,6.08275862 92.4035565,6.67586207 90.6682008,6.67586207 C89.5939331,6.67586207 88.8997908,6.42758621 88.4205021,5.87586207 C88.0569038,5.46206897 87.9246862,4.95172414 87.9246862,4.04137931 L87.9246862,2.66206897 C87.9246862,1.65517241 88.0899582,1.13103448 88.5361925,0.703448276 C89.0154812,0.234482759 89.676569,0.0275862069 90.6682008,0.0275862069 C92.3374477,0.0275862069 93.1968619,0.620689655 93.2629707,1.84827586 L91.9573222,1.93103448 C91.858159,1.28275862 91.4449791,0.979310345 90.684728,0.979310345 C89.6930962,0.979310345 89.3460251,1.43448276 89.3460251,2.73103448 L89.3460251,3.94482759 C89.3460251,5.24137931 89.6930962,5.69655172 90.7177824,5.69655172 C91.5110879,5.69655172 91.9573222,5.39310345 92.0564854,4.74482759 L93.3786611,4.89655172 Z" id="Path"></path>
                <polygon id="Path" points="94.6016736 0.124137931 96.0230126 0.124137931 96.0230126 2.82758621 98.6508368 2.82758621 98.6508368 0.124137931 100.072176 0.124137931 100.072176 6.57931034 98.6508368 6.57931034 98.6508368 3.79310345 96.0230126 3.79310345 96.0230126 6.57931034 94.6016736 6.57931034"></polygon>
                <path d="M102.980962,5.31034483 L102.485146,6.57931034 L100.948117,6.57931034 L103.757741,0.124137931 L105.129498,0.124137931 L107.939121,6.57931034 L106.402092,6.57931034 L105.922803,5.31034483 L102.980962,5.31034483 Z M104.451883,1.54482759 L103.328033,4.35862069 L105.575732,4.35862069 L104.451883,1.54482759 Z" id="Shape" fill-rule="nonzero"></path>
                <polygon id="Path" points="108.451464 0.124137931 109.872803 0.124137931 109.872803 6.57931034 108.451464 6.57931034"></polygon>
                <polygon id="Path" points="111.492469 0.124137931 112.864226 0.124137931 115.954812 4.59310345 115.954812 0.124137931 117.326569 0.124137931 117.326569 6.57931034 115.954812 6.57931034 112.880753 2.12413793 112.880753 6.59310345 111.508996 6.59310345 111.508996 0.124137931"></polygon>
                <path d="M1.43786611,15.8344828 L0.0165271967,15.8344828 L0.0165271967,9.37931034 L2.61129707,9.37931034 C3.68556485,9.37931034 4.26401674,9.51724138 4.69372385,9.88965517 C5.09037657,10.2482759 5.27217573,10.7172414 5.27217573,11.4206897 C5.27217573,12.1931034 5.07384937,12.6896552 4.59456067,13.0482759 C4.16485356,13.3655172 3.60292887,13.4896552 2.62782427,13.4896552 L1.45439331,13.4896552 L1.45439331,15.8344828 L1.43786611,15.8344828 Z M2.62782427,12.537931 C3.52029289,12.537931 3.86736402,12.2068966 3.86736402,11.4206897 C3.86736402,10.6344828 3.50376569,10.3172414 2.62782427,10.3172414 L1.42133891,10.3172414 L1.42133891,12.537931 L2.62782427,12.537931 Z" id="Shape" fill-rule="nonzero"></path>
                <path d="M7.09016736,14.5517241 L6.59435146,15.8206897 L5.05732218,15.8206897 L7.86694561,9.36551724 L9.23870293,9.36551724 L12.0483264,15.8206897 L10.5112971,15.8206897 L10.0320084,14.5517241 L7.09016736,14.5517241 Z M8.56108787,10.7862069 L7.43723849,13.6 L9.68493724,13.6 L8.56108787,10.7862069 Z" id="Shape" fill-rule="nonzero"></path>
                <polygon id="Path" points="13.6018828 10.3448276 11.4864017 10.3448276 11.4864017 9.37931034 17.1221757 9.37931034 17.1221757 10.3448276 15.0232218 10.3448276 15.0232218 15.8344828 13.6018828 15.8344828 13.6018828 10.3448276"></polygon>
                <polygon id="Path" points="18.1799163 9.37931034 22.939749 9.37931034 22.939749 10.3448276 19.584728 10.3448276 19.584728 12.0827586 22.4274059 12.0827586 22.4274059 13.0482759 19.584728 13.0482759 19.584728 14.8689655 22.9728033 14.8689655 22.9728033 15.8344828 18.1799163 15.8344828"></polygon>
                <polygon id="Path" points="24.1958159 9.37931034 25.5675732 9.37931034 28.658159 13.8482759 28.658159 9.37931034 30.0299163 9.37931034 30.0299163 15.8344828 28.658159 15.8344828 25.5675732 11.3655172 25.5675732 15.8344828 24.1958159 15.8344828"></polygon>
                <polygon id="Path" points="33.2031381 10.3448276 31.0876569 10.3448276 31.0876569 9.37931034 36.723431 9.37931034 36.723431 10.3448276 34.624477 10.3448276 34.624477 15.8344828 33.2031381 15.8344828"></polygon>
                <path d="M40.4089958,14.5517241 L39.9131799,15.8206897 L38.3761506,15.8206897 L41.1857741,9.36551724 L42.5575314,9.36551724 L45.3671548,15.8206897 L43.8301255,15.8206897 L43.3508368,14.5517241 L40.4089958,14.5517241 Z M41.8799163,10.7862069 L40.7560669,13.6 L43.0037657,13.6 L41.8799163,10.7862069 Z" id="Shape" fill-rule="nonzero"></path>
                <polygon id="Path" points="45.8794979 9.37931034 47.2512552 9.37931034 50.341841 13.8482759 50.341841 9.37931034 51.7135983 9.37931034 51.7135983 15.8344828 50.341841 15.8344828 47.2512552 11.3655172 47.2512552 15.8344828 45.8794979 15.8344828"></polygon>
                <path d="M53.3497908,9.37931034 L55.9776151,9.37931034 C58.0104603,9.35172414 58.9690377,10.1793103 58.9194561,11.8758621 L58.9194561,13.3241379 C58.9690377,15.0344828 58.0269874,15.8482759 55.9776151,15.8344828 L53.3497908,15.8344828 L53.3497908,9.37931034 Z M55.7131799,14.8827586 C57.0188285,14.8965517 57.4485356,14.4965517 57.48159,13.2413793 L57.48159,11.9724138 C57.4650628,10.7172414 57.0188285,10.3034483 55.7131799,10.3310345 L54.7546025,10.3310345 L54.7546025,14.8827586 L55.7131799,14.8827586 Z" id="Shape" fill-rule="nonzero"></path>
                <polygon id="Path" points="63.5966527 10.3448276 61.4811715 10.3448276 61.4811715 9.37931034 67.1169456 9.37931034 67.1169456 10.3448276 65.0179916 10.3448276 65.0179916 15.8344828 63.5966527 15.8344828"></polygon>
                <path d="M69.5960251,15.8344828 L68.1746862,15.8344828 L68.1746862,9.37931034 L71.017364,9.37931034 C72.0089958,9.37931034 72.5543933,9.51724138 72.9675732,9.84827586 C73.3476987,10.1793103 73.5129707,10.5931034 73.5129707,11.2551724 C73.5129707,12.3448276 73.0832636,12.8827586 72.0585774,13.1034483 L73.7443515,15.8482759 L72.1742678,15.8482759 L70.6868201,13.2137931 L69.5960251,13.2137931 L69.5960251,15.8344828 Z M70.934728,12.2758621 C71.7776151,12.2758621 72.1246862,11.9862069 72.1246862,11.3103448 C72.1246862,10.6206897 71.7610879,10.3310345 70.8851464,10.3310345 L69.5794979,10.3310345 L69.5794979,12.2758621 L70.934728,12.2758621 Z" id="Shape" fill-rule="nonzero"></path>
                <path d="M76.4052301,14.5517241 L75.9094142,15.8206897 L74.3723849,15.8206897 L77.1820084,9.36551724 L78.5537657,9.36551724 L81.3633891,15.8206897 L79.8263598,15.8206897 L79.3470711,14.5517241 L76.4052301,14.5517241 Z M77.8761506,10.7862069 L76.7523013,13.6 L79,13.6 L77.8761506,10.7862069 Z" id="Shape" fill-rule="nonzero"></path>
                <path d="M81.8757322,9.37931034 L84.5035565,9.37931034 C86.5364017,9.35172414 87.4949791,10.1793103 87.4453975,11.8758621 L87.4453975,13.3241379 C87.4949791,15.0344828 86.5529289,15.8482759 84.5035565,15.8344828 L81.8757322,15.8344828 L81.8757322,9.37931034 Z M84.2391213,14.8827586 C85.5447699,14.8965517 85.974477,14.4965517 86.0075314,13.2413793 L86.0075314,11.9724138 C85.9910042,10.7172414 85.5447699,10.3034483 84.2391213,10.3310345 L83.2970711,10.3310345 L83.2970711,14.8827586 L84.2391213,14.8827586 Z" id="Shape" fill-rule="nonzero"></path>
                <polygon id="Path" points="88.8667364 9.37931034 93.626569 9.37931034 93.626569 10.3448276 90.2715481 10.3448276 90.2715481 12.0827586 93.1142259 12.0827586 93.1142259 13.0482759 90.2715481 13.0482759 90.2715481 14.8689655 93.6596234 14.8689655 93.6596234 15.8344828 88.8667364 15.8344828"></polygon>
                <polygon id="Path" points="94.882636 9.37931034 96.2213389 9.37931034 98.3533473 13.0896552 100.485356 9.37931034 101.824059 9.37931034 101.824059 15.8344828 100.452301 15.8344828 100.452301 11.6 98.7995816 14.4413793 97.8905858 14.4413793 96.2378661 11.6 96.2378661 15.8344828 94.8661088 15.8344828 94.8661088 9.37931034"></polygon>
                <path d="M104.732845,14.5517241 L104.237029,15.8206897 L102.7,15.8206897 L105.509623,9.36551724 L106.881381,9.36551724 L109.691004,15.8206897 L108.153975,15.8206897 L107.674686,14.5517241 L104.732845,14.5517241 Z M106.187238,10.7862069 L105.063389,13.6 L107.311088,13.6 L106.187238,10.7862069 Z" id="Shape" fill-rule="nonzero"></path>
                <path d="M111.624686,15.8344828 L110.203347,15.8344828 L110.203347,9.37931034 L113.046025,9.37931034 C114.037657,9.37931034 114.583054,9.51724138 114.996234,9.84827586 C115.37636,10.1793103 115.541632,10.5931034 115.541632,11.2551724 C115.541632,12.3448276 115.111925,12.8827586 114.087238,13.1034483 L115.773013,15.8482759 L114.202929,15.8482759 L112.715481,13.2137931 L111.624686,13.2137931 L111.624686,15.8344828 Z M112.946862,12.2758621 C113.789749,12.2758621 114.13682,11.9862069 114.13682,11.3103448 C114.13682,10.6206897 113.773222,10.3310345 112.89728,10.3310345 L111.591632,10.3310345 L111.591632,12.2758621 L112.946862,12.2758621 Z" id="Shape" fill-rule="nonzero"></path>
                <polygon id="Path" points="116.962971 9.37931034 118.367782 9.37931034 118.367782 12.2896552 120.979079 9.37931034 122.648326 9.37931034 120.103138 12.0137931 122.797071 15.8344828 121.160879 15.8344828 119.177615 12.8275862 118.367782 13.6965517 118.367782 15.8344828 116.962971 15.8344828"></polygon>
                <path d="M125.061297,11.8344828 C125.061297,10.8827586 125.226569,10.3586207 125.705858,9.93103448 C126.218201,9.47586207 126.879289,9.26896552 127.920502,9.26896552 C129.044351,9.26896552 129.738494,9.50344828 130.250837,10.0413793 C130.64749,10.4551724 130.779707,10.9517241 130.779707,11.8344828 L130.779707,13.3793103 C130.779707,14.3310345 130.614435,14.8551724 130.135146,15.2827586 C129.622803,15.737931 128.961715,15.9448276 127.920502,15.9448276 C126.81318,15.9448276 126.10251,15.7103448 125.590167,15.1724138 C125.210042,14.7724138 125.061297,14.262069 125.061297,13.3793103 L125.061297,11.8344828 Z M129.358368,11.9310345 C129.358368,10.7034483 128.961715,10.2344828 127.920502,10.2344828 C126.879289,10.2344828 126.482636,10.7034483 126.482636,11.9310345 L126.482636,13.2689655 C126.482636,14.4965517 126.879289,14.9655172 127.920502,14.9655172 C128.961715,14.9655172 129.358368,14.4965517 129.358368,13.2689655 L129.358368,11.9310345 Z" id="Shape" fill-rule="nonzero"></path>
                <polygon id="Path" points="132.250628 9.37931034 136.944351 9.37931034 136.944351 10.3448276 133.655439 10.3448276 133.655439 12.137931 136.415481 12.137931 136.415481 13.1034483 133.655439 13.1034483 133.655439 15.8344828 132.2341 15.8344828 132.2341 9.37931034"></polygon>
                <polygon id="Path" points="137.886402 9.37931034 142.580126 9.37931034 142.580126 10.3448276 139.291213 10.3448276 139.291213 12.137931 142.051255 12.137931 142.051255 13.1034483 139.291213 13.1034483 139.291213 15.8344828 137.869874 15.8344828 137.869874 9.37931034"></polygon>
                <polygon id="Path" points="143.522176 9.37931034 144.943515 9.37931034 144.943515 15.8344828 143.522176 15.8344828"></polygon>
                <path d="M151.835356,14.1517241 C151.75272,15.337931 150.860251,15.9310345 149.124895,15.9310345 C148.050628,15.9310345 147.356485,15.6827586 146.877197,15.1310345 C146.513598,14.7172414 146.381381,14.2068966 146.381381,13.2965517 L146.381381,11.9172414 C146.381381,10.9103448 146.546653,10.3862069 146.992887,9.95862069 C147.472176,9.48965517 148.133264,9.28275862 149.124895,9.28275862 C150.794142,9.28275862 151.653556,9.87586207 151.719665,11.1034483 L150.414017,11.1862069 C150.314854,10.537931 149.901674,10.2344828 149.141423,10.2344828 C148.149791,10.2344828 147.80272,10.6896552 147.80272,11.9862069 L147.80272,13.2 C147.80272,14.4965517 148.149791,14.9517241 149.174477,14.9517241 C149.967782,14.9517241 150.414017,14.6482759 150.51318,14 L151.835356,14.1517241 Z" id="Path"></path>
                <polygon id="Path" points="153.074895 9.37931034 157.834728 9.37931034 157.834728 10.3448276 154.479707 10.3448276 154.479707 12.0827586 157.322385 12.0827586 157.322385 13.0482759 154.479707 13.0482759 154.479707 14.8689655 157.867782 14.8689655 157.867782 15.8344828 153.074895 15.8344828"></polygon>
            </g>
            <g id="Group" transform="translate(0.000000, 23.000000)">
                <path d="M57.2462887,38.3905605 C60.117732,38.3905605 61.8439175,37.39941 62.4248454,35.4336283 C63.0057732,33.4678466 63.2879381,31.3038348 63.2879381,28.9581121 C63.2879381,28.9250737 63.2879381,28.8920354 63.2879381,28.8755162 C63.2879381,28.8589971 63.2879381,28.8259587 63.2879381,28.7929204 C63.2879381,26.480236 62.9891753,24.3823009 62.3916495,22.4660767 C61.7941237,20.5498525 60.0679381,19.6082596 57.2462887,19.6082596 C54.7234021,19.6082596 53.1134021,20.4176991 52.4162887,22.0530973 C51.7191753,23.6884956 51.3208247,25.4725664 51.254433,27.4218289 C51.254433,27.7026549 51.254433,27.9669617 51.254433,28.2312684 C51.254433,28.4955752 51.254433,28.7433628 51.254433,28.9746313 C51.254433,29.2058997 51.254433,29.4536873 51.254433,29.6849558 C51.254433,29.9162242 51.254433,30.1640118 51.254433,30.3952802 C51.3374227,32.3775811 51.7191753,34.2112094 52.3996907,35.879646 C53.0802062,37.5646018 54.6902062,38.3905605 57.2462887,38.3905605 Z" id="Path" fill="url(#linearGradient-1)"></path>
                <path d="M87.2221649,38.3905605 C90.0604124,38.3905605 91.77,37.4324484 92.3675258,35.5327434 C92.9650515,33.6165192 93.2638144,31.5185841 93.2638144,29.2058997 C93.2638144,29.1728614 93.2638144,29.139823 93.2638144,29.1233038 C93.2638144,29.1067847 93.2638144,29.0737463 93.2638144,29.040708 C93.2638144,26.6949853 92.9650515,24.5309735 92.4007216,22.5651917 C91.8197938,20.59941 90.0936082,19.6082596 87.2221649,19.6082596 C84.6660825,19.6082596 83.0560825,20.4507375 82.375567,22.119174 C81.6950515,23.7876106 81.313299,25.6212389 81.2303093,27.6035398 C81.2303093,27.8348083 81.2303093,28.0825959 81.2303093,28.3138643 C81.2303093,28.5451327 81.2303093,28.7929204 81.2303093,29.0241888 C81.2303093,29.2554572 81.2303093,29.519764 81.2303093,29.7675516 C81.2303093,30.0318584 81.2303093,30.2961652 81.2303093,30.5769912 C81.313299,32.5262537 81.6950515,34.3103245 82.3921649,35.9457227 C83.0892784,37.5811209 84.6992784,38.3905605 87.2221649,38.3905605 Z" id="Path" fill="url(#linearGradient-2)"></path>
                <path d="M154.858763,0.0825958702 L112.567216,0.0825958702 L112.567216,13.8926254 L116.998866,13.8926254 L116.998866,18.5510324 L112.567216,18.5510324 L112.567216,36.1439528 C112.567216,36.9864307 112.733196,37.5646018 113.081753,37.8949853 C113.413711,38.2253687 113.978041,38.4070796 114.724948,38.4070796 L116.998866,38.4070796 L116.998866,44.139233 L113.82866,44.139233 C111.704124,44.139233 109.96134,43.4949853 108.550515,42.2064897 C107.156289,40.9179941 106.459175,39.0678466 106.459175,36.6890855 L106.459175,18.5345133 L103.405155,18.5345133 L103.405155,13.8761062 L106.459175,13.8761062 L106.459175,0.0660766962 L51.254433,0.0660766962 L51.254433,17.0973451 C52.4162887,16.0235988 53.6279381,15.1646018 54.8727835,14.5038348 C56.1342268,13.8430678 57.5450515,13.5126844 59.1052577,13.5126844 C60.9808247,13.5126844 62.5908247,13.8761062 63.9352577,14.619469 C65.2796907,15.3628319 66.3751546,16.3044248 67.2548454,17.4442478 C67.2880412,17.4772861 67.3212371,17.5268437 67.3378351,17.559882 C67.354433,17.5929204 67.3876289,17.6259587 67.4208247,17.6259587 C68.1843299,18.699705 68.698866,19.9551622 68.9810309,21.4088496 C69.2631959,22.8625369 69.3959794,25.3734513 69.3959794,28.9581121 C69.3959794,32.5758112 69.2631959,35.119764 68.9810309,36.5899705 C68.698866,38.060177 68.1843299,39.3156342 67.4208247,40.339823 C67.3876289,40.339823 67.354433,40.3563422 67.3378351,40.4058997 C67.3212371,40.4389381 67.2880412,40.4884956 67.2548454,40.5215339 C66.3751546,41.6283186 65.2630928,42.5533923 63.9352577,43.2967552 C62.5908247,44.040118 60.9808247,44.4035398 59.1052577,44.4035398 C57.5450515,44.4035398 56.084433,44.0896755 54.7234021,43.4454277 C53.3623711,42.8176991 52.2005155,41.9752212 51.254433,40.9345133 L51.254433,44.0896755 L45.1463918,44.0896755 L45.1463918,0.0825958702 L6.14123711,0.0825958702 C2.78845361,0.0825958702 0.0663917526,2.79174041 0.0663917526,6.12861357 L0.0663917526,49.9374631 C0.0663917526,53.2743363 2.78845361,55.9834808 6.14123711,55.9834808 L75.122268,55.9834808 L75.122268,13.8926254 L81.2303093,13.8926254 L81.2303093,17.0477876 C82.1929897,16.0070796 83.3548454,15.1646018 84.6992784,14.520354 C86.0603093,13.859587 87.5209278,13.5292035 89.081134,13.5292035 C90.956701,13.5292035 92.566701,13.8926254 93.911134,14.6359882 C95.255567,15.379351 96.3510309,16.320944 97.2307216,17.460767 C97.2639175,17.4938053 97.2971134,17.5433628 97.3137113,17.5764012 C97.3303093,17.6094395 97.3635052,17.6424779 97.396701,17.6424779 C98.1602062,18.6831858 98.6747423,19.9221239 98.9569072,21.3923304 C99.2390722,22.8625369 99.3718557,25.4064897 99.3718557,29.0241888 C99.3718557,32.6088496 99.2390722,35.119764 98.9569072,36.5734513 C98.6747423,38.0271386 98.1602062,39.2825959 97.396701,40.3563422 C97.3635052,40.3563422 97.3303093,40.3728614 97.3137113,40.4224189 C97.2971134,40.4554572 97.2639175,40.5050147 97.2307216,40.5380531 C96.3510309,41.6448378 95.2389691,42.5699115 93.911134,43.3132743 C92.566701,44.0566372 90.956701,44.420059 89.081134,44.420059 C87.5209278,44.420059 86.1101031,44.1061947 84.8486598,43.4619469 C83.5872165,42.8342183 82.375567,41.9752212 81.2303093,40.9014749 L81.2303093,55.9669617 L154.858763,55.9669617 C158.211546,55.9669617 160.933608,53.2578171 160.933608,49.920944 L160.933608,6.12861357 C160.933608,2.79174041 158.211546,0.0825958702 154.858763,0.0825958702 Z M38.8557732,31.3038348 L19.9175258,31.3038348 C19.9175258,33.7651917 20.6146392,35.6318584 21.992268,36.8873156 C23.3698969,38.1427729 25.0960825,38.7705015 27.1708247,38.7705015 C27.4031959,38.7705015 27.6521649,38.7539823 27.8845361,38.7374631 C28.1169072,38.720944 28.3658763,38.6879056 28.5982474,38.6548673 C29.511134,38.4896755 30.4406186,38.1758112 31.3535052,37.6967552 C32.2663918,37.2176991 33.0962887,36.6064897 33.81,35.8466077 L38.2416495,39.5964602 C36.764433,41.3144543 35.0714433,42.5368732 33.1792784,43.2967552 C31.2871134,44.0566372 29.3119588,44.4365782 27.2704124,44.4365782 C26.8720619,44.4365782 26.4737113,44.420059 26.1085567,44.4035398 C25.7268041,44.3870206 25.3450515,44.3539823 24.946701,44.320944 C22.1582474,43.9575221 19.585567,42.7020649 17.2784536,40.5380531 C14.9547423,38.3740413 13.8094845,34.5581121 13.8094845,29.1233038 C13.8094845,23.8702065 14.9215464,20.0873156 17.1290722,17.7581121 C19.3531959,15.4289086 21.7930928,14.0743363 24.4653608,13.6778761 C24.7807216,13.6448378 25.0960825,13.6117994 25.3948454,13.5952802 C25.6936082,13.5787611 26.0089691,13.5622419 26.3243299,13.5622419 C29.6771134,13.5622419 32.5983505,14.7185841 35.1046392,17.0147493 C37.5943299,19.3274336 38.8557732,22.4165192 38.8557732,26.3150442 L38.8557732,31.3038348 Z M146.443608,36.1935103 C145.94567,37.779351 145.132371,39.2165192 144.020309,40.4884956 C143.987113,40.5215339 143.93732,40.5710914 143.904124,40.6041298 C143.821134,40.6867257 143.754742,40.7693215 143.688351,40.8353982 C143.621959,40.9179941 143.555567,41.00059 143.472577,41.0666667 C142.592887,41.9091445 141.447629,42.6690265 140.020206,43.3628319 C138.609381,44.0566372 136.816804,44.4035398 134.659072,44.4035398 C132.50134,44.4035398 130.708763,44.0566372 129.297938,43.3628319 C127.887113,42.6690265 126.725258,41.9091445 125.845567,41.0666667 C125.762577,40.9840708 125.696186,40.9014749 125.629794,40.8353982 C125.563402,40.7528024 125.49701,40.6702065 125.414021,40.6041298 C125.380825,40.5710914 125.331031,40.5215339 125.297835,40.4884956 C124.185773,39.2165192 123.372474,37.779351 122.874536,36.1935103 C122.376598,34.6076696 122.127629,32.1958702 122.127629,28.9746313 C122.127629,25.7533923 122.376598,23.3581121 122.874536,21.7887906 C123.372474,20.219469 124.185773,18.7988201 125.297835,17.5268437 C125.331031,17.4938053 125.380825,17.4442478 125.414021,17.4112094 C125.49701,17.3286136 125.563402,17.2460177 125.629794,17.179941 C125.696186,17.0973451 125.762577,17.0147493 125.845567,16.9486726 C126.725258,16.1061947 127.870515,15.3463127 129.297938,14.619469 C130.708763,13.9091445 132.50134,13.5457227 134.659072,13.5457227 C136.816804,13.5457227 138.609381,13.9091445 140.020206,14.619469 C141.431031,15.3297935 142.592887,16.1061947 143.472577,16.9486726 C143.555567,17.0312684 143.621959,17.1138643 143.688351,17.179941 C143.754742,17.2625369 143.821134,17.3451327 143.904124,17.4112094 C143.93732,17.4442478 143.987113,17.4938053 144.020309,17.5268437 C145.132371,18.7988201 145.94567,20.219469 146.443608,21.7887906 C146.941546,23.3581121 147.190515,25.7533923 147.190515,28.9746313 C147.190515,32.1958702 146.941546,34.6076696 146.443608,36.1935103 Z" id="Shape" fill="url(#linearGradient-3)" fill-rule="nonzero"></path>
                <path d="M26.3409278,19.2448378 C24.5483505,19.2448378 23.0379381,19.839528 21.8428866,21.0289086 C20.6478351,22.2182891 20.0005155,23.9693215 19.9175258,26.2820059 L32.747732,26.2820059 C32.6647423,23.9693215 32.0340206,22.2348083 30.8223711,21.0289086 C29.6273196,19.8560472 28.1335052,19.2448378 26.3409278,19.2448378 Z" id="Path" fill="url(#linearGradient-4)"></path>
                <path d="M139.937216,22.3504425 C139.904021,22.2678466 139.854227,22.1852507 139.787835,22.0861357 C139.721443,21.9870206 139.655052,21.9044248 139.572062,21.8218289 C139.123918,21.1941003 138.46,20.6654867 137.563711,20.2359882 C136.667423,19.8230088 135.688144,19.6082596 134.659072,19.6082596 C133.613402,19.6082596 132.650722,19.8230088 131.754433,20.2359882 C130.858144,20.6489676 130.194227,21.1775811 129.746082,21.8218289 C129.663093,21.9044248 129.596701,21.9870206 129.530309,22.0861357 C129.463918,22.1852507 129.414124,22.2678466 129.380928,22.3504425 C128.949381,23.060767 128.634021,23.8702065 128.484639,24.7622419 C128.31866,25.6542773 128.252268,27.0584071 128.252268,28.9746313 C128.252268,30.9238938 128.335258,32.3445428 128.484639,33.2365782 C128.650619,34.1286136 128.949381,34.9380531 129.380928,35.6483776 C129.414124,35.7309735 129.463918,35.8135693 129.530309,35.9126844 C129.596701,36.0117994 129.663093,36.0943953 129.746082,36.1769912 C130.177629,36.8212389 130.858144,37.3333333 131.754433,37.7628319 C132.650722,38.1758112 133.613402,38.3905605 134.659072,38.3905605 C135.704742,38.3905605 136.667423,38.1758112 137.563711,37.7628319 C138.46,37.3498525 139.123918,36.8212389 139.572062,36.1769912 C139.655052,36.0943953 139.721443,36.0117994 139.787835,35.9126844 C139.854227,35.8135693 139.904021,35.7309735 139.937216,35.6483776 C140.368763,34.9380531 140.667526,34.1286136 140.833505,33.2365782 C140.999485,32.3445428 141.065876,30.940413 141.065876,29.0241888 C141.065876,27.0749263 140.982887,25.6542773 140.833505,24.7622419 C140.684124,23.8702065 140.385361,23.0772861 139.937216,22.3504425 Z" id="Path" fill="url(#linearGradient-5)"></path>
            </g>
        </g>
    </g>
</svg>