<?xml version="1.0" encoding="UTF-8"?>
<svg width="97px" height="37px" viewBox="0 0 97 37" version="1.1" xmlns="http://www.w3.org/2000/svg" xmlns:xlink="http://www.w3.org/1999/xlink">
    <!-- Generator: Sketch 52.2 (67145) - http://www.bohemiancoding.com/sketch -->
    <title>ENSFull</title>
    <desc>Created with Sketch.</desc>
    <defs>
        <linearGradient x1="-428.338483%" y1="-50.5021988%" x2="865.454621%" y2="221.265611%" id="linearGradient-1">
            <stop stop-color="#FA4B7F" offset="0%"></stop>
            <stop stop-color="#F3935D" offset="100%"></stop>
        </linearGradient>
        <linearGradient x1="-653.061379%" y1="-97.6938434%" x2="640.731724%" y2="174.073967%" id="linearGradient-2">
            <stop stop-color="#FA4B7F" offset="0%"></stop>
            <stop stop-color="#F3935D" offset="100%"></stop>
        </linearGradient>
        <linearGradient x1="1.37289517%" y1="4.12836041%" x2="98.1537454%" y2="95.4134417%" id="linearGradient-3">
            <stop stop-color="#FA4B7F" offset="0%"></stop>
            <stop stop-color="#F3935D" offset="100%"></stop>
        </linearGradient>
        <linearGradient x1="-168.629495%" y1="-68.3079812%" x2="1044.82458%" y2="657.044131%" id="linearGradient-4">
            <stop stop-color="#FA4B7F" offset="0%"></stop>
            <stop stop-color="#F3935D" offset="100%"></stop>
        </linearGradient>
        <linearGradient x1="-944.056736%" y1="-172.336324%" x2="270.969171%" y2="99.4315743%" id="linearGradient-5">
            <stop stop-color="#FA4B7F" offset="0%"></stop>
            <stop stop-color="#F3935D" offset="100%"></stop>
        </linearGradient>
    </defs>
    <g id="ENSFull" stroke="none" stroke-width="1" fill="none" fillRule="evenodd">
        <g id="ebpto-logo-gradient" transform="translate(0.000000, 2.000000)">
            <g id="Group">
                <path d="M34.134433,22.6230088 C35.8465979,22.6230088 36.8758763,22.0389381 37.222268,20.880531 C37.5686598,19.7221239 37.7369072,18.4469027 37.7369072,17.0646018 C37.7369072,17.0451327 37.7369072,17.0256637 37.7369072,17.0159292 C37.7369072,17.0061947 37.7369072,16.9867257 37.7369072,16.9672566 C37.7369072,15.6044248 37.5587629,14.3681416 37.2024742,13.2389381 C36.8461856,12.1097345 35.8169072,11.5548673 34.134433,11.5548673 C32.6301031,11.5548673 31.6701031,12.0318584 31.254433,12.9955752 C30.8387629,13.959292 30.6012371,15.0106195 30.5616495,16.159292 C30.5616495,16.3247788 30.5616495,16.480531 30.5616495,16.6362832 C30.5616495,16.7920354 30.5616495,16.9380531 30.5616495,17.0743363 C30.5616495,17.2106195 30.5616495,17.3566372 30.5616495,17.4929204 C30.5616495,17.6292035 30.5616495,17.7752212 30.5616495,17.9115044 C30.611134,19.079646 30.8387629,20.160177 31.2445361,21.1433628 C31.6503093,22.1362832 32.6103093,22.6230088 34.134433,22.6230088 Z" id="Path" fill="url(#linearGradient-1)"></path>
                <path d="M52.0082474,22.6230088 C53.7006186,22.6230088 54.72,22.0584071 55.0762887,20.9389381 C55.4325773,19.8097345 55.6107216,18.5734513 55.6107216,17.2106195 C55.6107216,17.1911504 55.6107216,17.1716814 55.6107216,17.1619469 C55.6107216,17.1522124 55.6107216,17.1327434 55.6107216,17.1132743 C55.6107216,15.7309735 55.4325773,14.4557522 55.0960825,13.2973451 C54.7496907,12.1389381 53.7204124,11.5548673 52.0082474,11.5548673 C50.4841237,11.5548673 49.5241237,12.0513274 49.1183505,13.0345133 C48.7125773,14.0176991 48.4849485,15.0982301 48.4354639,16.2663717 C48.4354639,16.4026549 48.4354639,16.5486726 48.4354639,16.6849558 C48.4354639,16.8212389 48.4354639,16.9672566 48.4354639,17.1035398 C48.4354639,17.239823 48.4354639,17.3955752 48.4354639,17.5415929 C48.4354639,17.6973451 48.4354639,17.8530973 48.4354639,18.0185841 C48.4849485,19.1672566 48.7125773,20.2185841 49.1282474,21.1823009 C49.5439175,22.1460177 50.5039175,22.6230088 52.0082474,22.6230088 Z" id="Path" fill="url(#linearGradient-2)"></path>
                <path d="M92.3381443,0.0486725664 L67.1208247,0.0486725664 L67.1208247,8.18672566 L69.763299,8.18672566 L69.763299,10.9318584 L67.1208247,10.9318584 L67.1208247,21.299115 C67.1208247,21.7955752 67.2197938,22.1362832 67.4276289,22.3309735 C67.625567,22.5256637 67.9620619,22.6327434 68.4074227,22.6327434 L69.763299,22.6327434 L69.763299,26.0106195 L67.8729897,26.0106195 C66.6061856,26.0106195 65.5670103,25.6309735 64.7257732,24.8716814 C63.894433,24.1123894 63.4787629,23.0221239 63.4787629,21.620354 L63.4787629,10.9221239 L61.657732,10.9221239 L61.657732,8.17699115 L63.4787629,8.17699115 L63.4787629,0.0389380531 L30.5616495,0.0389380531 L30.5616495,10.0752212 C31.254433,9.44247788 31.9769072,8.93628319 32.7191753,8.54690265 C33.4713402,8.15752212 34.3125773,7.96283186 35.2428866,7.96283186 C36.3612371,7.96283186 37.3212371,8.17699115 38.1228866,8.61504425 C38.9245361,9.05309735 39.577732,9.6079646 40.102268,10.279646 C40.1220619,10.299115 40.1418557,10.3283186 40.1517526,10.3477876 C40.1616495,10.3672566 40.1814433,10.3867257 40.2012371,10.3867257 C40.6564948,11.019469 40.963299,11.759292 41.1315464,12.6159292 C41.2997938,13.4725664 41.3789691,14.9522124 41.3789691,17.0646018 C41.3789691,19.1964602 41.2997938,20.6955752 41.1315464,21.5619469 C40.963299,22.4283186 40.6564948,23.1681416 40.2012371,23.7716814 C40.1814433,23.7716814 40.1616495,23.7814159 40.1517526,23.8106195 C40.1418557,23.8300885 40.1220619,23.859292 40.102268,23.8787611 C39.577732,24.5309735 38.9146392,25.0761062 38.1228866,25.5141593 C37.3212371,25.9522124 36.3612371,26.1663717 35.2428866,26.1663717 C34.3125773,26.1663717 33.4416495,25.9814159 32.6301031,25.6017699 C31.8185567,25.2318584 31.1257732,24.7353982 30.5616495,24.1221239 L30.5616495,25.9814159 L26.9195876,25.9814159 L26.9195876,0.0486725664 L3.66185567,0.0486725664 C1.66268041,0.0486725664 0.0395876289,1.64513274 0.0395876289,3.61150442 L0.0395876289,29.4274336 C0.0395876289,31.3938053 1.66268041,32.9902655 3.66185567,32.9902655 L44.7934021,32.9902655 L44.7934021,8.18672566 L48.4354639,8.18672566 L48.4354639,10.0460177 C49.0094845,9.43274336 49.702268,8.93628319 50.5039175,8.55663717 C51.3154639,8.16725664 52.1863918,7.97256637 53.116701,7.97256637 C54.2350515,7.97256637 55.1950515,8.18672566 55.996701,8.62477876 C56.7983505,9.06283186 57.4515464,9.61769912 57.9760825,10.2893805 C57.9958763,10.3088496 58.0156701,10.3380531 58.025567,10.3575221 C58.0354639,10.3769912 58.0552577,10.3964602 58.0750515,10.3964602 C58.5303093,11.0097345 58.8371134,11.739823 59.0053608,12.6061947 C59.1736082,13.4725664 59.2527835,14.9716814 59.2527835,17.1035398 C59.2527835,19.2159292 59.1736082,20.6955752 59.0053608,21.5522124 C58.8371134,22.4088496 58.5303093,23.1486726 58.0750515,23.7814159 C58.0552577,23.7814159 58.0354639,23.7911504 58.025567,23.820354 C58.0156701,23.839823 57.9958763,23.8690265 57.9760825,23.8884956 C57.4515464,24.540708 56.7884536,25.0858407 55.996701,25.5238938 C55.1950515,25.9619469 54.2350515,26.1761062 53.116701,26.1761062 C52.1863918,26.1761062 51.3451546,25.9911504 50.5929897,25.6115044 C49.8408247,25.2415929 49.1183505,24.7353982 48.4354639,24.1026549 L48.4354639,32.980531 L92.3381443,32.980531 C94.3373196,32.980531 95.9604124,31.3840708 95.9604124,29.4176991 L95.9604124,3.61150442 C95.9604124,1.64513274 94.3373196,0.0486725664 92.3381443,0.0486725664 Z M23.1686598,18.4469027 L11.8762887,18.4469027 C11.8762887,19.8973451 12.2919588,20.9973451 13.1134021,21.7371681 C13.9348454,22.4769912 14.9641237,22.8469027 16.2012371,22.8469027 C16.3397938,22.8469027 16.4882474,22.8371681 16.6268041,22.8274336 C16.7653608,22.8176991 16.9138144,22.7982301 17.0523711,22.7787611 C17.596701,22.6814159 18.1509278,22.4964602 18.6952577,22.2141593 C19.2395876,21.9318584 19.734433,21.5716814 20.16,21.1238938 L22.8024742,23.3336283 C21.9216495,24.3460177 20.9121649,25.0663717 19.7839175,25.5141593 C18.6556701,25.9619469 17.4779381,26.1858407 16.2606186,26.1858407 C16.0230928,26.1858407 15.785567,26.1761062 15.5678351,26.1663717 C15.3402062,26.1566372 15.1125773,26.1371681 14.8750515,26.1176991 C13.2123711,25.9035398 11.6783505,25.1637168 10.3026804,23.8884956 C8.9171134,22.6132743 8.2342268,20.3646018 8.2342268,17.1619469 C8.2342268,14.0663717 8.89731959,11.8371681 10.2136082,10.4646018 C11.5397938,9.0920354 12.9946392,8.29380531 14.5880412,8.06017699 C14.7760825,8.04070796 14.9641237,8.02123894 15.142268,8.01150442 C15.3204124,8.00176991 15.5084536,7.9920354 15.6964948,7.9920354 C17.6956701,7.9920354 19.4375258,8.67345133 20.9319588,10.0265487 C22.4164948,11.3893805 23.1686598,13.2097345 23.1686598,15.5070796 L23.1686598,18.4469027 Z M87.3204124,21.3283186 C87.0235052,22.2628319 86.5385567,23.1097345 85.8754639,23.859292 C85.8556701,23.8787611 85.8259794,23.9079646 85.8061856,23.9274336 C85.756701,23.9761062 85.7171134,24.0247788 85.6775258,24.0637168 C85.6379381,24.1123894 85.5983505,24.1610619 85.548866,24.2 C85.0243299,24.6964602 84.3414433,25.1442478 83.4903093,25.5530973 C82.6490722,25.9619469 81.5802062,26.1663717 80.2936082,26.1663717 C79.0070103,26.1663717 77.9381443,25.9619469 77.0969072,25.5530973 C76.2556701,25.1442478 75.5628866,24.6964602 75.0383505,24.2 C74.988866,24.1513274 74.9492784,24.1026549 74.9096907,24.0637168 C74.8701031,24.0150442 74.8305155,23.9663717 74.7810309,23.9274336 C74.7612371,23.9079646 74.7315464,23.8787611 74.7117526,23.859292 C74.0486598,23.1097345 73.5637113,22.2628319 73.2668041,21.3283186 C72.9698969,20.3938053 72.8214433,18.9725664 72.8214433,17.0743363 C72.8214433,15.1761062 72.9698969,13.7646018 73.2668041,12.839823 C73.5637113,11.9150442 74.0486598,11.0778761 74.7117526,10.3283186 C74.7315464,10.3088496 74.7612371,10.279646 74.7810309,10.260177 C74.8305155,10.2115044 74.8701031,10.1628319 74.9096907,10.1238938 C74.9492784,10.0752212 74.988866,10.0265487 75.0383505,9.98761062 C75.5628866,9.49115044 76.2457732,9.04336283 77.0969072,8.61504425 C77.9381443,8.19646018 79.0070103,7.98230088 80.2936082,7.98230088 C81.5802062,7.98230088 82.6490722,8.19646018 83.4903093,8.61504425 C84.3315464,9.03362832 85.0243299,9.49115044 85.548866,9.98761062 C85.5983505,10.0362832 85.6379381,10.0849558 85.6775258,10.1238938 C85.7171134,10.1725664 85.756701,10.2212389 85.8061856,10.260177 C85.8259794,10.279646 85.8556701,10.3088496 85.8754639,10.3283186 C86.5385567,11.0778761 87.0235052,11.9150442 87.3204124,12.839823 C87.6173196,13.7646018 87.7657732,15.1761062 87.7657732,17.0743363 C87.7657732,18.9725664 87.6173196,20.3938053 87.3204124,21.3283186 Z" id="Shape" fill="url(#linearGradient-3)" fillRule="nonzero"></path>
                <path d="M15.7063918,11.340708 C14.6375258,11.340708 13.7369072,11.6911504 13.0243299,12.3920354 C12.3117526,13.0929204 11.9257732,14.1247788 11.8762887,15.4876106 L19.5265979,15.4876106 C19.4771134,14.1247788 19.1010309,13.1026549 18.3785567,12.3920354 C17.6659794,11.700885 16.7752577,11.340708 15.7063918,11.340708 Z" id="Path" fill="url(#linearGradient-4)"></path>
                <path d="M83.4408247,13.1707965 C83.4210309,13.1221239 83.3913402,13.0734513 83.3517526,13.0150442 C83.3121649,12.9566372 83.2725773,12.9079646 83.2230928,12.859292 C82.9558763,12.4893805 82.56,12.1778761 82.025567,11.9247788 C81.491134,11.6814159 80.9072165,11.5548673 80.2936082,11.5548673 C79.6701031,11.5548673 79.0960825,11.6814159 78.5616495,11.9247788 C78.0272165,12.1681416 77.6313402,12.479646 77.3641237,12.859292 C77.3146392,12.9079646 77.2750515,12.9566372 77.2354639,13.0150442 C77.1958763,13.0734513 77.1661856,13.1221239 77.1463918,13.1707965 C76.8890722,13.5893805 76.7010309,14.0663717 76.6119588,14.5920354 C76.5129897,15.1176991 76.4734021,15.9451327 76.4734021,17.0743363 C76.4734021,18.2230088 76.5228866,19.060177 76.6119588,19.5858407 C76.7109278,20.1115044 76.8890722,20.5884956 77.1463918,21.0070796 C77.1661856,21.0557522 77.1958763,21.1044248 77.2354639,21.1628319 C77.2750515,21.2212389 77.3146392,21.2699115 77.3641237,21.3185841 C77.6214433,21.6982301 78.0272165,22 78.5616495,22.2530973 C79.0960825,22.4964602 79.6701031,22.6230088 80.2936082,22.6230088 C80.9171134,22.6230088 81.491134,22.4964602 82.025567,22.2530973 C82.56,22.0097345 82.9558763,21.6982301 83.2230928,21.3185841 C83.2725773,21.2699115 83.3121649,21.2212389 83.3517526,21.1628319 C83.3913402,21.1044248 83.4210309,21.0557522 83.4408247,21.0070796 C83.6981443,20.5884956 83.8762887,20.1115044 83.9752577,19.5858407 C84.0742268,19.060177 84.1138144,18.2327434 84.1138144,17.1035398 C84.1138144,15.9548673 84.0643299,15.1176991 83.9752577,14.5920354 C83.8861856,14.0663717 83.7080412,13.599115 83.4408247,13.1707965 Z" id="Path" fill="url(#linearGradient-5)"></path>
            </g>
        </g>
    </g>
</svg>